<?xml version="1.0" encoding="UTF-8"?>
<!DOCTYPE svg PUBLIC "-//W3C//DTD SVG 1.1//EN" "http://www.w3.org/Graphics/SVG/1.1/DTD/svg11.dtd">
<!-- Creator: CorelDRAW 2017 -->
<svg xmlns="http://www.w3.org/2000/svg" xml:space="preserve" width="66.9847mm" height="54.4284mm" version="1.1" style="shape-rendering:geometricPrecision; text-rendering:geometricPrecision; image-rendering:optimizeQuality; fill-rule:evenodd; clip-rule:evenodd"
viewBox="0 0 446.44 362.76"
 xmlns:xlink="http://www.w3.org/1999/xlink">
 <defs>
  <style type="text/css">
   <![CDATA[
    .fil0 {fill:black}
   ]]>
  </style>
 </defs>
 <g id="Capa_x0020_1">
  <metadata id="CorelCorpID_0Corel-Layer"/>
  <path class="fil0" d="M211.73 229.02c-35.26,4.71 -63.84,35.59 -58.55,76.48 4.44,34.33 37.51,62.7 77.71,56.37 84.2,-13.25 67.58,-144.43 -19.16,-132.85zm-211.15 -205.64c0,18.16 -2.45,85.44 2.7,98.44 11.77,4.53 100.46,4.59 112.2,-0.04 4.63,-11.74 4.56,-100.43 0.04,-112.2 -13.22,-5.08 -80.1,-2.66 -98.44,-2.66 -13.24,0 -16.49,3.22 -16.49,16.46zm326.85 101.54l103.45 0c31.49,0 8.35,-25.44 -9.82,-61.17 -6,-11.79 -12.3,-23.18 -18.16,-33.6 -27.97,-49.8 -24.25,-44.43 -82.83,65.79 -6.27,11.8 -17.24,28.98 7.35,28.98zm-115.41 125.45c-62.5,12 -42.29,103.65 18.52,90.09 21.6,-4.82 39.69,-27.84 34.25,-54.49 -4.52,-22.12 -26.75,-40.59 -52.77,-35.6zm-190.71 -146.62l75.71 0 0 -75.67 -75.71 0 0 75.67zm315.96 144.18c-2.67,-3.35 -1.35,-0.56 -3.07,-5.83 -1.09,-3.33 -0.74,-2.75 -1.25,-5.98 -0.92,-5.85 0.99,-5.54 -2.25,-11.45 -4.36,-7.96 -12.15,-5.11 -18.02,-2.55 -2.45,14.58 -0.39,53.65 4.65,64.83 9.74,2.03 46,-1.64 57.03,-5.06 9.25,-2.87 13.05,-12.51 4.66,-18.39 -6.66,-4.67 -19.4,-0.52 -28.04,0.03 3.62,-8.07 54.18,-91.4 41.76,-110.03 -9.32,-13.99 -17.87,1.4 -20.29,11.43 -11.73,48.58 -27.1,61.48 -35.18,83.01zm-284.11 -58.99c11.51,21.19 40.3,103.22 69.77,97.46 8.91,-16.38 -3.46,-17.85 -22.54,-47.73 -11.04,-17.29 -18.55,-34.34 -26.01,-54.74 4.97,2.45 17.9,11.29 22.82,11.22 13.39,-0.18 12.75,-13.04 3.43,-20.21 -7.34,-5.65 -38.43,-27.26 -45.63,-26.33 -9.89,1.28 -51.37,73.59 -17.67,62.4 6.86,-2.28 11.71,-15.91 15.83,-22.07zm215.15 -142.97c-12.8,-2.13 -142.79,-14 -114.49,16.94 7.48,7.59 24.9,-0.72 51.36,-1.51 19.37,-0.58 38.93,1.75 56.96,4.34 -10.96,10.83 -29.54,7.14 -20.22,28.58 14.02,2.57 28.96,-7.85 41.3,-14.15 20.83,-10.63 25.08,-11.49 11.3,-33.26 -5.14,-8.11 -17.32,-32.41 -24.55,-34.55 -26.93,-7.98 -1.66,33.6 -1.65,33.61zm71.51 57.39l78.88 0.32c-4.51,-11.64 -12.68,-24.1 -18.65,-35.32l-20.88 -35.29 -39.35 70.29z"/>
 </g>
</svg>
