<?xml version="1.0" encoding="UTF-8"?>
<!DOCTYPE svg PUBLIC "-//W3C//DTD SVG 1.1//EN" "http://www.w3.org/Graphics/SVG/1.1/DTD/svg11.dtd">
<!-- Creator: CorelDRAW 2017 -->
<svg xmlns="http://www.w3.org/2000/svg" xml:space="preserve" width="17.604mm" height="18.2771mm" version="1.1" style="shape-rendering:geometricPrecision; text-rendering:geometricPrecision; image-rendering:optimizeQuality; fill-rule:evenodd; clip-rule:evenodd"
viewBox="0 0 33.25 34.52"
 xmlns:xlink="http://www.w3.org/1999/xlink">
 <defs>
  <style type="text/css">
   <![CDATA[
    .str0 {stroke:#373435;stroke-width:0.14;stroke-miterlimit:22.9256}
    .fil0 {fill:#373435}
   ]]>
  </style>
 </defs>
 <g id="Capa_x0020_1">
  <metadata id="CorelCorpID_0Corel-Layer"/>
  <path class="fil0 str0" d="M21.75 33.28l0.25 -0.47c0.01,-0.06 0.05,-0.07 0.07,-0.11 -1.34,0.47 -0.78,-0.13 -2.01,-0.11 -1.17,0.03 -0.42,0.59 -2.08,0.28 0.42,-0.34 0.55,-0.25 1.22,-0.25 -0.22,-0.16 -0.05,-0.11 -0.42,-0.24 -0.1,-0.03 -0.4,-0.03 -0.52,-0.08l-1.66 -0.38c0.17,-0.42 -0.2,-0.13 0.42,-0.25 0.41,-0.08 1.53,0.01 2.15,-0.22 -0.47,-0.44 -1.61,-0.36 -2.31,-0.21l-0.28 0.08c-0.05,0.01 -0.08,0.03 -0.14,0.04 -0.56,0.15 -1.88,0.22 -2.4,-0.07 0.71,-0.18 1.47,0.06 2.46,-0.28 1.46,-0.5 1.75,0.21 2.55,-0.35l-0.84 -0.13c-0.73,-0.16 -2.44,0.18 -3.67,0.02 -1.03,-0.13 -2.29,-0.44 -3.2,-0.8 -1.52,-0.6 -4.14,-2.38 -4.59,-3.43l2.65 -1.51 -7.04 -2.16 -1.7 7.15c0.65,-0.13 1.89,-1.11 2.74,-1.43 0.4,0.28 1.04,1.22 1.46,1.61 4.53,4.24 10.94,5.69 16.86,3.28z"/>
  <path class="fil0 str0" d="M7.29 17.07c0.63,0.34 8.1,3.14 8.48,3.17 0.4,0.03 6.08,-2.17 7.39,-2.64l1.12 -0.53c-0.34,-0.39 -8.08,-3.24 -8.52,-3.22l-8.47 3.22z"/>
  <path class="fil0 str0" d="M26.57 13.14l0.55 0.39c0.03,-0.63 0.12,-1.51 0.11,-1.75 -0.05,-1.16 -0.81,-0.53 -0.29,-1.4 0.27,0.86 0.71,1.02 0.77,1.33 0.09,0.48 -0.44,1.16 0.35,1.82l0.2 -1.44c0.35,0.09 -0.02,-0.14 0.24,0.22 0.37,0.5 0.4,1.14 0.58,1.66 0.04,-0.04 0.08,-0.17 0.09,-0.14 0.02,0.03 0.07,-0.1 0.09,-0.14l0.22 -0.7c0.07,-0.35 0.1,-0.34 0.06,-0.87 0.5,0.6 -0.18,0.21 0.03,1.66 0.05,0.03 0.33,0.18 0.44,0.21 0.76,0.24 -0.11,-0.15 0.37,0.05l-0.14 1.32c0.89,-0.45 0.26,-0.46 0.56,-0.36 0.11,1.41 -0.1,1.16 -0.12,1.63l0.06 0.34c0.01,0.02 0.02,0.08 0.04,0.11 0.6,-0.89 0.12,-1.46 0.46,-2.56 -0.67,-0.74 -1.01,-3.59 -3.19,-5.9 -1.39,-1.47 -0.68,-1.07 -2.26,-2.23 -2.53,-1.87 -3.78,-2.57 -7.27,-3.34 0.34,0.64 1.39,1.31 1.76,1.87 -0.48,0.73 -1.44,1.31 -1.78,1.92 0.49,0.29 1.85,0.68 2.52,0.97 2.29,1.01 4.3,3.07 5.56,5.33z"/>
  <path class="fil0 str0" d="M7.07 5.59l-0.04 0.31c0.86,-0.13 -0.05,-0.14 0.57,-0.14 0.33,-0 0.25,0.03 0.67,0.16 -0.03,-0.04 -0.08,-0.14 -0.09,-0.11l-0.14 -0.4c-0,-0.02 0.02,-0.06 0.02,-0.09l0.81 0.47c0.06,0.92 -0.69,0.54 0.56,1.09 0.73,0.32 0.69,0.62 1.52,0.77 0.85,-0.32 1.75,-0.72 2.76,-0.82l-0.02 3.03c0.41,-0.16 2.42,-2.1 2.72,-2.37 0.5,-0.45 2.27,-1.98 2.56,-2.58 -0.31,-0.59 -0.71,-0.68 -1.32,-1.27l-1.94 -1.9c-0.27,-0.27 -0.41,-0.36 -0.68,-0.6 -0.3,-0.26 -0.94,-1.12 -1.26,-1.08l-0.1 2.94c-2.01,0.28 -5.37,1.37 -6.61,2.58z"/>
  <path class="fil0 str0" d="M27.74 20.12c-0.1,0.84 -0.23,1.92 -0.64,2.48 -0.89,-0.32 -1.56,-1.01 -2.63,-1.4l1.57 6.99c0.67,0 6.38,-1.74 7.05,-2.11l-2.13 -1.21c-0.04,-0.03 -0.17,-0.11 -0.2,-0.14 -0.03,-0.02 -0.08,-0.06 -0.1,-0.08 -0.02,-0.02 -0.07,-0.05 -0.1,-0.08l0.7 -2.5 -0.81 0.08c-0.35,0.59 0.02,0.4 -0.5,0.83 -0.06,-0.29 -0.09,-0.23 0,-0.57l0.09 -0.22c0.01,-0.04 0.04,-0.08 0.05,-0.11 0.2,-0.6 0.11,-0.92 -0.12,-1.35 -0.14,0.18 -0.07,0.02 -0.18,0.31 -0.2,0.53 -0.04,0.76 -0.32,1.15 -0.5,-0.6 -0.12,-1.89 -0.55,-2.54l-0.23 2.56c-0.09,-0.12 -0.33,0.05 -0.26,-1.21 0.03,-0.52 0.08,-0.96 -0.08,-1.38 -0.18,0.23 -0.04,-0.06 -0.15,0.35l-0.32 0.88c-0.16,-0.59 0.1,0.4 -0.06,-0.27 -0.07,-0.3 0.06,-0.11 -0.11,-0.48z"/>
  <path class="fil0 str0" d="M4.4 15.23c-0.83,-0.18 -0.2,0.04 -0.49,-0.24 0.01,-0.8 0.31,-1.06 0.52,-1.73 -0.39,0.09 -0.49,0.4 -0.84,1.26 -0.37,-0 -0.38,0.02 -0.73,-0.08 -0.04,-0.01 -0.08,-0.03 -0.12,-0.04l-1.44 -0.23 -0.18 -1.11c-1.44,3 -1.37,7.93 -0.04,11.17l0.65 -2.5c1.04,0 1.61,0.44 2.67,0.61 -0.44,-2.43 -0.98,-4.74 -0.01,-7.11z"/>
  <path class="fil0 str0" d="M26.57 13.14c0.42,1.17 0.79,1.73 1.05,3.07 0.28,1.39 0.28,2.55 0.12,3.92 0.18,0.38 0.04,0.18 0.11,0.48 0.16,0.67 -0.11,-0.32 0.06,0.27l0.32 -0.88c0.11,-0.41 -0.03,-0.12 0.15,-0.35 0.16,0.42 0.11,0.86 0.08,1.38 -0.07,1.26 0.17,1.09 0.26,1.21l0.23 -2.56c0.44,0.65 0.05,1.94 0.55,2.54 0.28,-0.39 0.12,-0.62 0.32,-1.15 0.11,-0.28 0.04,-0.13 0.18,-0.31 0.23,0.43 0.32,0.75 0.12,1.35 -0.01,0.04 -0.04,0.08 -0.05,0.11l-0.09 0.22c-0.09,0.34 -0.06,0.29 -0,0.57 0.52,-0.43 0.15,-0.24 0.5,-0.83l0.81 -0.08c0.27,-1.32 0.41,-2.28 0.39,-3.74 -0.01,-1.17 -0.5,-3.13 -0.42,-3.83 -0.34,1.1 0.15,1.68 -0.46,2.56 -0.02,-0.03 -0.04,-0.09 -0.04,-0.11l-0.06 -0.34c0.01,-0.47 0.22,-0.23 0.12,-1.63 -0.3,-0.1 0.33,-0.09 -0.56,0.36l0.14 -1.32c-0.48,-0.2 0.38,0.19 -0.37,-0.05 -0.1,-0.03 -0.39,-0.18 -0.44,-0.21 -0.21,-1.46 0.47,-1.07 -0.03,-1.66 0.04,0.53 0,0.52 -0.06,0.87l-0.22 0.7c-0.02,0.04 -0.07,0.17 -0.09,0.14 -0.02,-0.03 -0.05,0.1 -0.09,0.14 -0.18,-0.52 -0.21,-1.16 -0.58,-1.66 -0.26,-0.35 0.12,-0.12 -0.24,-0.22l-0.2 1.44c-0.8,-0.66 -0.26,-1.34 -0.35,-1.82 -0.06,-0.32 -0.5,-0.47 -0.77,-1.33 -0.52,0.87 0.24,0.23 0.29,1.4 0.01,0.24 -0.08,1.12 -0.11,1.75l-0.55 -0.39z"/>
  <path class="fil0 str0" d="M18.23 30.54l0.84 0.13c-0.8,0.57 -1.09,-0.15 -2.55,0.35 -0.99,0.34 -1.75,0.11 -2.46,0.28 0.52,0.29 1.84,0.22 2.4,0.07 0.05,-0.01 0.08,-0.03 0.14,-0.04l0.28 -0.08c0.7,-0.15 1.83,-0.23 2.31,0.21 -0.62,0.23 -1.74,0.14 -2.15,0.22 -0.62,0.13 -0.25,-0.17 -0.42,0.25l1.66 0.38c0.11,0.05 0.42,0.05 0.52,0.08 0.37,0.12 0.2,0.07 0.42,0.24 -0.67,0 -0.8,-0.09 -1.22,0.25 1.66,0.31 0.91,-0.25 2.08,-0.28 1.24,-0.03 0.68,0.57 2.01,0.11 -0.02,0.04 -0.06,0.05 -0.07,0.11l-0.25 0.47c2.39,-0.87 5.11,-2.96 6.25,-4.65l-2.52 0.73 -0.7 -2.7c-2.2,1.84 -1.91,2.17 -5.55,3.46 -0.08,0.03 -0.4,0.14 -0.48,0.17l-0.52 0.24z"/>
  <path class="fil0 str0" d="M10.68 22.57c2.29,0.85 7.97,0.79 10.27,0.03l0.09 -3.2c-1.19,0.2 -4.56,1.82 -5.26,1.77 -1.01,-0.06 -3.79,-1.66 -5.07,-1.77l-0.02 3.17z"/>
  <path class="fil0 str0" d="M1.13 13.06l0.18 1.11 1.44 0.23c0.04,0.01 0.08,0.03 0.12,0.04 0.35,0.1 0.36,0.07 0.73,0.08 0.35,-0.85 0.44,-1.16 0.84,-1.26 -0.2,0.67 -0.51,0.93 -0.52,1.73 0.29,0.28 -0.34,0.06 0.49,0.24 0.17,-0.82 0.49,-1.48 0.82,-2.14 0.14,-0.29 0.33,-0.66 0.51,-0.92 0.26,-0.37 0.42,-0.48 0.63,-0.92l-0.17 -0.58c0.25,-0.08 0.11,0.03 0.38,-0.18l0.18 -0.19c0.02,-0.06 0.06,-0.07 0.09,-0.11 -0.41,-0.36 -0.36,-0.65 -1.16,-0.68 0.2,-0.34 -0.4,-0.52 0.53,-0.44l-0.51 -0.37c-0.28,0.53 -0.44,0.8 -1.6,0.8 0.3,-0.79 0.17,-0.6 0.94,-0.92 -0.27,-0.24 -0.13,-0.17 -0.71,-0.19l0.12 -0.58c-1.03,0.72 -3,3.8 -3.31,5.23z"/>
  <path class="fil0 str0" d="M7.07 5.59c-0.98,0.57 -2.19,1.45 -2.64,2.23l-0.12 0.58c0.58,0.02 0.44,-0.05 0.71,0.19 -0.78,0.31 -0.64,0.13 -0.94,0.92 1.15,0 1.31,-0.27 1.6,-0.8l0.51 0.37c-0.93,-0.08 -0.32,0.1 -0.53,0.44 0.79,0.03 0.75,0.31 1.16,0.68 -0.03,0.04 -0.07,0.05 -0.09,0.11l-0.18 0.19c-0.26,0.2 -0.13,0.1 -0.38,0.18l0.17 0.58c0.37,-0.27 0.63,-0.68 0.95,-1.02 1.61,-1.71 2.31,-1.7 3.65,-2.58 -0.83,-0.16 -0.79,-0.45 -1.52,-0.77 -1.25,-0.56 -0.51,-0.18 -0.56,-1.09l-0.81 -0.47c-0.01,0.03 -0.03,0.08 -0.02,0.09l0.14 0.4c0.01,-0.03 0.06,0.07 0.09,0.11 -0.42,-0.13 -0.34,-0.17 -0.67,-0.16 -0.62,0 0.29,0.01 -0.57,0.14l0.04 -0.31z"/>
  <path class="fil0 str0" d="M7.27 22.81c0.84,-0.01 0.65,-0.26 0.64,-1.9 -0.01,-0.89 0.05,-1.79 -0.02,-2.68l-0.8 -0.22c-0.04,0.94 -0.19,4.24 0.19,4.8z"/>
 </g>
</svg>
