<?xml version="1.0" standalone="no"?>
<!DOCTYPE svg PUBLIC "-//W3C//DTD SVG 20010904//EN"
 "http://www.w3.org/TR/2001/REC-SVG-20010904/DTD/svg10.dtd">
<svg version="1.0" xmlns="http://www.w3.org/2000/svg"
 width="512.000000pt" height="512.000000pt" viewBox="0 0 512.000000 512.000000"
 preserveAspectRatio="xMidYMid meet">

<g transform="translate(0.000000,512.000000) scale(0.100000,-0.100000)"
fill="#000000" stroke="none">
<path d="M4565 4840 c-33 -10 -81 -34 -107 -52 -25 -18 -189 -168 -364 -333
-1730 -1631 -2246 -2115 -2255 -2115 -5 0 -298 117 -650 260 -352 143 -661
265 -685 271 -25 7 -78 9 -119 7 -308 -20 -489 -395 -315 -653 40 -59 1679
-1812 1747 -1868 83 -69 147 -91 263 -91 159 0 264 53 358 182 50 68 2519
3623 2599 3742 110 164 108 346 -7 495 -108 140 -308 207 -465 155z m187 -192
c22 -6 60 -30 85 -52 79 -69 102 -158 64 -241 -30 -65 -2618 -3786 -2665
-3832 -71 -69 -182 -82 -266 -31 -40 24 -1694 1786 -1738 1851 -33 50 -40 122
-17 184 22 56 79 121 122 140 77 31 83 29 814 -267 380 -154 703 -280 719
-280 16 0 43 12 62 28 32 26 466 434 1932 1816 458 431 713 665 740 677 48 22
93 24 148 7z"/>
</g>
</svg>
