<?xml version="1.0" encoding="UTF-8"?>
<!DOCTYPE svg PUBLIC "-//W3C//DTD SVG 1.1//EN" "http://www.w3.org/Graphics/SVG/1.1/DTD/svg11.dtd">
<!-- Creator: CorelDRAW 2017 -->
<svg xmlns="http://www.w3.org/2000/svg" xml:space="preserve" width="52.211mm" height="52.211mm" version="1.1" style="shape-rendering:geometricPrecision; text-rendering:geometricPrecision; image-rendering:optimizeQuality; fill-rule:evenodd; clip-rule:evenodd"
viewBox="0 0 743.5 743.5"
 xmlns:xlink="http://www.w3.org/1999/xlink">
 <defs>
  <style type="text/css">
   <![CDATA[
    .fil0 {fill:black}
   ]]>
  </style>
 </defs>
 <g id="Capa_x0020_1">
  <metadata id="CorelCorpID_0Corel-Layer"/>
  <path class="fil0" d="M388.06 0l-210.87 0c-35.2,20.05 -52.87,18.64 -73.16,53.84 -20.01,34.71 -14.62,74.85 -14.62,116.96 0.01,96.86 -0.01,154.24 86.58,174.61l1.44 83.93c34.65,12.35 44.91,-8.42 63.75,-27.41 8.01,-8.08 46.98,-48.82 53.48,-51.55 51.82,-21.71 104.16,28.69 164.47,-47.03 31.78,-39.89 35.92,-215.92 -4.46,-265.68 -19.8,-24.4 -36.28,-21.96 -66.6,-37.67zm-388.06 620.94l0 122.55 247.16 0c20.88,-25.72 14.13,-31.42 14.08,-70.33 -0.14,-102.95 -17.62,-116.6 -115.5,-126.17 22.31,-13.47 54.21,-26.29 48.76,-73.57 -8.72,-75.6 -123.63,-73.29 -128.05,4.45 -2.51,44.13 27.22,55.85 48.91,69.12 -99.15,9.78 -80.74,8.98 -115.37,73.94zm496.33 122.55l247.16 0 0 -122.55c-34.62,-64.96 -16.21,-64.15 -115.37,-73.94 21.98,-13.45 53.99,-26.67 48.53,-73.45 -8.85,-75.79 -123.72,-73.38 -128.04,4.24 -2.48,44.59 27.12,55.92 49.13,69.2 -105.47,10.31 -115.02,28.37 -115.51,131.21 -0.18,38.16 -6.21,40.27 14.09,65.28zm-30.75 -381.8c11.66,19.09 28.02,31.29 44.23,47.8 17.48,17.81 25.35,30.78 54.54,19.79l3.9 -83.86c85.87,-20.39 85.79,-77.83 85.94,-174.7 0.16,-99.58 -46.6,-125.53 -143.15,-126.87 14.38,60.87 27.29,197.68 -0.95,260.35 -15.46,34.31 -26.6,34.62 -44.52,57.5zm-202.56 -198.24c-15.9,-13.45 -27.84,-36.44 -53.6,-30.3 -24.31,19.97 -9.7,33.38 6.26,47.95 50.63,46.23 38.74,56.46 105.16,-10.99 11.56,-11.74 49.7,-43.48 50.02,-60.15 0.25,-12.65 -14.07,-43.37 -55.39,-0.49 -15.8,16.4 -40.56,37.66 -52.45,53.97z"/>
 </g>
</svg>
