<?xml version="1.0" encoding="UTF-8"?>
<!DOCTYPE svg PUBLIC "-//W3C//DTD SVG 1.1//EN" "http://www.w3.org/Graphics/SVG/1.1/DTD/svg11.dtd">
<!-- Creator: CorelDRAW 2017 -->
<svg xmlns="http://www.w3.org/2000/svg" xml:space="preserve" width="76.5526mm" height="81.8444mm" version="1.1" style="shape-rendering:geometricPrecision; text-rendering:geometricPrecision; image-rendering:optimizeQuality; fill-rule:evenodd; clip-rule:evenodd"
viewBox="0 0 493.49 527.61"
 xmlns:xlink="http://www.w3.org/1999/xlink">
 <defs>
  <style type="text/css">
   <![CDATA[
    .fil3 {fill:black}
    .fil2 {fill:#5C546A}
    .fil0 {fill:#F4BB2C}
    .fil1 {fill:white}
   ]]>
  </style>
 </defs>
 <g id="Capa_x0020_1">
  <metadata id="CorelCorpID_0Corel-Layer"/>
  <path class="fil0" d="M185.46 409.68c18.3,-2.77 120.51,-15.5 129.66,-19.5 8.81,-3.85 57.26,-82.08 60.14,-87.97 36.21,-73.96 5.08,-162.02 -73.83,-192.24 -68.88,-26.37 -144.13,-4.23 -178.34,58.67 -30.42,55.94 -18.53,125.03 20.18,170.11 17.3,20.14 35.54,43.51 42.19,70.93z"/>
  <path class="fil1" d="M221 173.17c-8.56,2.81 -8.53,3.92 -16.33,7.82 -7.93,-4.91 -15.12,-12.98 -23.94,-5.14 -4.09,3.63 -10.96,15.75 -11.58,22.41 7.35,8.8 7.58,5.28 13.99,12.01l-4.83 17.82c-26.63,6.03 -23.43,9.64 -15.55,36.19l22.31 -0.79c2.21,8.34 5.24,9.06 8.03,17.04 -4.93,5.13 -8.57,9.14 -9.53,17.37 4.23,6.87 16.42,15 23.37,17.08 10.72,-3.51 8.31,-7.92 15.92,-13.74l17.39 5.36 3.88 19.1c6.36,0.67 20.41,0.02 26.53,-2.75 9.53,-4.31 5.86,-13.91 4.51,-23.23 6.28,-2.47 11.42,-7.63 15.97,-7.61 6.16,0.03 7.52,5.8 18.15,8.53 4.81,-2.93 13.92,-13.34 16.19,-18.59 5.34,-12.32 -4.57,-14.28 -12.15,-20.53 6.05,-28.13 8.75,-11.58 24.36,-24.13 0.85,-5.59 -0.5,-19.63 -2.75,-24.43 -4.38,-9.36 -12.87,-5.57 -23.08,-4.04l-8.44 -15.63c3.9,-7.18 7.66,-10.36 9.33,-18.18 -3.91,-7.47 -14.95,-16.8 -26.2,-17.36l-9.89 9.77c-2.59,2.92 -1.32,1.9 -3.76,3.99 -29.19,-8.82 -10.24,-5.65 -23.59,-25.04 -26.74,-2.32 -32.52,3.18 -28.31,26.69z"/>
  <path class="fil0" d="M243.08 201.24c-46.57,6.54 -37.7,75.67 9.36,70.28 19.79,-2.27 33.81,-18.56 30.12,-41.7 -2.75,-17.22 -18.92,-31.46 -39.48,-28.58z"/>
  <polygon class="fil2" points="195.22,468.8 199.72,493.62 302.22,478.5 303.07,452.89 "/>
  <path class="fil2" d="M192.1 428.35l2.16 19.13c12.95,2.29 87.69,-11.58 107.21,-14.23l4.71 -20.89 -114.08 15.98z"/>
  <path class="fil3" d="M69.87 51.13c-14.17,2.5 -21.88,17.83 -1.79,35.36 6.47,5.65 22.99,24.51 35.59,21.89 10.69,-2.22 22.17,-17 0.06,-34.79 -8.98,-7.23 -19.7,-24.96 -33.86,-22.46z"/>
  <path class="fil3" d="M-0 242.95l0 9.88c10.34,15.74 15.43,11.62 38.71,11.16 15.57,-0.31 32.16,-0.84 31.35,-18.17 -0.78,-16.64 -16.46,-15.99 -31.65,-15.26 -23.42,1.13 -27.83,-3.04 -38.4,12.39z"/>
  <path class="fil3" d="M264.18 0l-8.79 0c-14.3,12.97 -11.9,14.99 -12.28,38.68 -0.27,16.89 -0.7,33.42 18.05,31.6 17.44,-1.7 14.98,-18.26 15.49,-33.85 0.79,-24.45 3.52,-24.46 -12.47,-36.42z"/>
  <path class="fil3" d="M493.49 235.04l0 -10.29c-11.62,-16.96 -17.06,-12.11 -39.66,-9.77 -14.81,1.53 -31.02,2.39 -30.23,19.03 0.8,16.89 16.4,16.03 31.37,14.44 25.66,-2.71 27.97,-0.09 38.52,-13.41z"/>
  <path class="fil3" d="M432.09 67.29c-18.16,-12.79 -23.05,-11.69 -33.85,5.81 -5.97,9.67 -22.12,25.42 -17.58,39.48 10.65,32.99 54.37,-17.38 51.43,-45.29z"/>
  <path class="fil2" d="M240.53 527.61l12.83 0c7.97,-3.22 17.14,-4.97 23.74,-9.37 8.35,-5.58 13.38,-10.92 16.95,-18.73l-62.67 9.23c-17.48,2.28 -13.96,1.71 -18.9,6.51l28.05 12.36z"/>
 </g>
</svg>
