<?xml version="1.0" standalone="no"?>
<!DOCTYPE svg PUBLIC "-//W3C//DTD SVG 20010904//EN"
 "http://www.w3.org/TR/2001/REC-SVG-20010904/DTD/svg10.dtd">
<svg version="1.0" xmlns="http://www.w3.org/2000/svg"
 width="90.000000pt" height="90.000000pt" viewBox="0 0 90.000000 90.000000"
 preserveAspectRatio="xMidYMid meet">

<g transform="translate(0.000000,90.000000) scale(0.100000,-0.100000)"
fill="#000000" stroke="none">
<path d="M170 820 c-17 -17 -20 -33 -20 -126 0 -98 1 -105 19 -99 27 8 111
-72 143 -137 14 -29 31 -75 37 -103 7 -27 26 -70 42 -94 35 -54 37 -92 5 -154
l-23 -47 168 0 c156 0 171 2 189 20 19 19 20 33 20 283 l0 262 -108 108 -107
107 -173 0 c-159 0 -174 -2 -192 -20z m444 -218 c-43 -2 -83 -1 -91 2 -9 4
-13 29 -13 93 l0 88 90 -90 91 -90 -77 -3z"/>
<path d="M154 518 c-54 -60 -93 -152 -94 -217 -1 -14 -14 -42 -30 -61 -17 -19
-30 -42 -30 -52 0 -22 30 -98 39 -98 3 0 19 16 35 37 28 35 30 35 37 15 7 -19
16 -22 69 -22 53 0 62 3 69 22 7 20 10 19 41 -21 l34 -42 17 43 c25 60 23 79
-11 118 -16 19 -29 46 -30 59 0 51 -33 140 -68 186 -21 27 -42 50 -48 52 -5 2
-19 -7 -30 -19z m56 -133 c15 -18 10 -45 -12 -59 -35 -22 -74 27 -48 59 16 19
44 19 60 0z"/>
<path d="M130 52 c0 -5 11 -19 25 -32 l25 -23 25 23 c14 13 25 27 25 32 0 4
-22 8 -50 8 -27 0 -50 -4 -50 -8z"/>
</g>
</svg>
