<?xml version="1.0" encoding="UTF-8"?>
<!DOCTYPE svg PUBLIC "-//W3C//DTD SVG 1.1//EN" "http://www.w3.org/Graphics/SVG/1.1/DTD/svg11.dtd">
<!-- Creator: CorelDRAW 2017 -->
<svg xmlns="http://www.w3.org/2000/svg" xml:space="preserve" width="73.1048mm" height="72.7237mm" version="1.1" style="shape-rendering:geometricPrecision; text-rendering:geometricPrecision; image-rendering:optimizeQuality; fill-rule:evenodd; clip-rule:evenodd"
viewBox="0 0 784.25 780.16"
 xmlns:xlink="http://www.w3.org/1999/xlink">
 <defs>
  <style type="text/css">
   <![CDATA[
    .fil0 {fill:black}
   ]]>
  </style>
 </defs>
 <g id="Capa_x0020_1">
  <metadata id="CorelCorpID_0Corel-Layer"/>
  <path class="fil0" d="M89.81 512.64l4.96 150.46 94.48 -0.05c2.52,-0.04 13.92,-0.51 15.43,-0.35 24.07,2.58 7.92,-0.22 14.07,6.92l-0.26 109.09 24.54 0 0 -137.94 -125.72 0 -0.01 -148.05 -80.15 -22.53c5.63,-21.23 34.66,-66.49 45.5,-87.39 41.19,-79.42 17.39,-21.38 22.35,-109.1 8.2,-145.16 130.92,-256.98 284.85,-249.47 72.76,3.55 153.37,52.35 177.18,90.77 -8.71,5.52 -18.54,14.37 -27.05,21.4 -11.71,9.68 -17.69,13.67 -29.57,22.53 -34.06,-21.63 -65.89,-67.63 -114.82,-80.15 -131.85,-33.73 -209.06,119.42 -136.43,200.91 13.85,15.55 41,35.15 49.21,48.85 18.02,30.04 -16.47,46.2 42.35,60.04 6.29,34.33 12.82,31.83 33.55,42.47 0.68,0.35 1.95,1.12 2.5,1.41 0.55,0.29 1.72,0.85 2.46,1.46 15.82,24.71 -1.1,28.64 39.23,38.66 3.97,2.9 6.09,28.2 21.08,36.63 19.57,11.01 32.49,0.51 47.85,-1.62 11.81,-1.64 26.86,7.99 44.23,1.44 14.64,-5.52 16,-14.33 20.63,-24.96 0.4,-0.92 0.8,-1.94 1.2,-2.83l2.74 -5.59c0.32,-0.67 0.91,-1.91 1.47,-2.8 46.39,-12.24 25.08,-29.24 45.41,-40.15 3.58,6.82 -0.79,15.34 -3.86,22.35 -3.54,8.09 -6.71,15.79 -10.9,23.6 -21.6,40.28 -62.49,90.64 -103.2,111.49l0.15 190.02 23.31 -0.2c4.6,-40.11 1.46,-104.38 0.98,-146.79 -0.61,-54.14 14.46,-23.48 60.9,-85.38 67.46,-89.92 64.63,-138.59 72.8,-150.48 12.57,-18.3 25.17,1.43 35.46,-40.46 5.17,-21.04 4.38,-13.12 31.79,-39.98 37.84,-37.09 80.95,-81.34 56.66,-154.14 -11.59,-34.74 -38,-64.31 -70.24,-77.34 -57.25,-23.14 -88.34,0.42 -120.94,13.73 -27.94,-24.63 -35.27,-39.2 -79.09,-63.34 -27.94,-15.39 -75.29,-31.03 -113.32,-34.59 -159.36,-14.9 -307.41,111.21 -312.54,276.33 -2.11,67.98 14.05,39.41 -29.5,112.1 -14.84,24.77 -41.7,69.92 -51.55,96.11 19.66,2.91 76.77,17.06 89.81,26.91zm440.76 -333.72l46.85 39.89c15.11,12.77 36.14,32.97 21.54,63.35 -28.16,58.61 -93.08,-18.16 -114.54,-27.13 -21.47,8.13 -18.32,14.25 -49.29,15.68 -28.32,1.3 -58.35,31.88 -77.56,50.25 -12.9,12.34 -27.71,15.33 -17.59,40.5 17.12,5.24 21.87,-1.2 32.5,-10.35 15.01,-12.93 69.21,-60.25 83.44,-65.98l11.45 16.88c-10.9,12.91 -33.1,30.93 -48.22,42.79 -29.45,23.1 -45.51,31.29 -43.67,53.05 22.22,15.83 27.6,2.76 61.32,-24.18 17.54,-14.01 37.77,-39.89 60.18,-44.11l8.68 13.21c-5.71,15.12 -61.53,54.34 -81.96,74.89 -12.45,12.52 -12.32,16.68 -1.04,30.08 17.64,0.86 29.55,-9.94 39.13,-18.83 22.06,-20.49 16.24,-10.54 36.88,-23.03l6.6 -12.85c11.94,-23.12 18.27,-20.18 37.89,-26.41 5.29,-21.15 7.07,-27.87 25.53,-35.11 32.57,-12.76 9.08,-10.73 28.76,-31.7 29.1,-31.02 65.2,5.7 79.96,19.93 15.67,-8.17 65.6,-57.53 74.31,-77.69 39.53,-91.57 -59.11,-175.3 -135.99,-132.18 -18.24,10.23 -74.67,55.77 -85.17,69.04zm-201.32 132.91c19.7,-17.92 43.71,-33.99 61.38,-53.17 -14.58,-20.51 -26.27,-24.3 -31.15,-61.63l22.77 0.65c9.98,27.04 11.35,41.7 39.54,47.93 32,7.07 46.35,-12.93 58.83,-24.91 29.83,12.46 98.79,100.42 98.22,33.04l-100.02 -87.73c-16.74,-14.54 -31.94,-27.73 -51.27,-43.44 -97.5,-79.22 -228.23,49.97 -149.18,141.49 9.58,11.09 37.92,40.67 50.87,47.76zm236.37 56.58c5.43,16.68 27.17,41 52.05,37.71 12.24,-22.54 0.51,-28.59 -15.23,-42.3 -17.91,-15.6 -26.33,-20.4 -36.82,4.59zm-42.14 36.93c9.26,38 68.35,57.84 57.94,21.5 -1.16,-4.05 -21.54,-32.55 -44.03,-35.18l-13.92 13.68zm131.24 -37.77c8.49,-6.92 6.3,-3.21 12.84,-14.29 -2.1,-6.95 -32.76,-55.91 -52.76,-36.14 -14.08,13.92 0.28,22.46 8.01,30.23 11.12,11.18 13.84,19.23 31.9,20.2zm-120.66 117.84c19.55,-30.73 -35.41,-54.52 -38.29,-53.84 -19.84,13.56 -15.94,19.37 -2.11,33.48 11.39,11.62 17.97,24.23 40.4,20.36zm-315.3 184.21c-6.15,-7.14 10,-4.34 -14.07,-6.92 -1.51,-0.16 -12.91,0.32 -15.43,0.35l-94.48 0.05 -4.96 -150.46 1.47 153.01c38.21,5.58 94.5,-4.99 127.48,3.97zm259.97 -179.57l-21.79 -27.94c-5.38,18.41 1.06,26.59 21.79,27.94z"/>
 </g>
</svg>
