<?xml version="1.0" encoding="UTF-8"?>
<!DOCTYPE svg PUBLIC "-//W3C//DTD SVG 1.1//EN" "http://www.w3.org/Graphics/SVG/1.1/DTD/svg11.dtd">
<!-- Creator: CorelDRAW 2017 -->
<svg xmlns="http://www.w3.org/2000/svg" xml:space="preserve" width="69.1964mm" height="36.7695mm" version="1.1" style="shape-rendering:geometricPrecision; text-rendering:geometricPrecision; image-rendering:optimizeQuality; fill-rule:evenodd; clip-rule:evenodd"
viewBox="0 0 439.64 233.62"
 xmlns:xlink="http://www.w3.org/1999/xlink">
 <defs>
  <style type="text/css">
   <![CDATA[
    .fil0 {fill:black}
   ]]>
  </style>
 </defs>
 <g id="Capa_x0020_1">
  <metadata id="CorelCorpID_0Corel-Layer"/>
  <path class="fil0" d="M270.79 31.85c25.56,7.86 38.9,-3.52 51.94,21.71 11.92,23.08 -6.78,14.71 20.13,55.75 -86.57,6.19 -36.97,73.17 -86.33,88.29 -8.77,2.68 -21.81,0.43 -27.25,2.37 -25.56,9.13 32.82,27.06 56.41,-6.87 19.42,-27.94 -3.4,-70.09 59.61,-69.95 22.64,0.05 45.28,0.04 67.92,0.04 -5.29,7.75 -11.11,7.01 -8.83,18.98 15.3,4.95 34.34,-24.12 35.24,-26.13 -4.72,-5.46 -27.41,-32.18 -34.35,-25.24 -4.65,9.84 2.97,9.45 8.03,18.88 -27.52,0.18 -47.69,3.81 -63.36,-13.95 -17.62,-19.98 1.93,-75.66 -67.36,-75.66 -11.59,0 -12.81,1.66 -11.8,11.77z"/>
  <path class="fil0" d="M0.01 121.11c18.48,7.12 31.04,1.27 41.42,23.13 8.73,18.39 0.37,30.6 15.64,49.33 24.72,30.32 68.24,16.11 112.64,19.7 -4.59,5.27 -11.48,8.86 -9.13,17.96 8.11,11.26 33.29,-20.84 35.2,-25.54l-23.84 -24.18c-7.37,-4.94 -16.28,-1.65 -10.19,8.01 2.86,4.55 3.44,0.81 7.65,9.86 -22.62,0 -45.92,0.56 -68.45,0.05 -57.72,-1.3 -29.85,-49.62 -58.94,-75.94 -8.65,-7.83 -42.58,-26.68 -42,-2.38z"/>
  <path class="fil0" d="M205.3 0.65c-4.52,11.05 2.69,10.08 8.06,19.27 -47.37,1.14 -72.67,4.08 -77.83,51.46 -2.22,20.36 -11.56,32.72 -28.6,36.99 -11.25,2.82 -23.96,-0.39 -32.71,1.5 -5.63,1.21 -21.13,13.32 17.86,13.32 66.11,0 49.83,-57.98 65.39,-76.24 13.58,-15.94 33.59,-13.5 55.55,-13.36 -4.29,8.48 -9.08,7.26 -10.17,16.79 9.07,8.24 12.3,1.72 19.57,-5.71 6.14,-6.28 12.9,-11.44 16.87,-18.28 -18.89,-16.39 -22.41,-29.49 -33.98,-25.74z"/>
  <path class="fil0" d="M245.6 109.73l-68.5 -0.12c-8.8,-0.09 -17.36,-1.75 -17.39,6.33 -0.05,13.52 58.23,5.42 86.21,7.69 -4.59,5.27 -11.48,8.86 -9.13,17.96 9.42,6.1 13.21,-0.61 19.47,-7.04 7.86,-8.07 12.37,-10.25 15.73,-18.5 -2.94,-4.02 -31.09,-40.43 -35.66,-21.91 -1.88,7.62 -0.45,2.89 2.62,6.89 4.79,6.24 2.01,-1.28 6.66,8.71z"/>
 </g>
</svg>
