<?xml version="1.0" encoding="UTF-8"?>
<!DOCTYPE svg PUBLIC "-//W3C//DTD SVG 1.1//EN" "http://www.w3.org/Graphics/SVG/1.1/DTD/svg11.dtd">
<!-- Creator: CorelDRAW 2017 -->
<svg xmlns="http://www.w3.org/2000/svg" xml:space="preserve" width="79.375mm" height="77.5633mm" version="1.1" style="shape-rendering:geometricPrecision; text-rendering:geometricPrecision; image-rendering:optimizeQuality; fill-rule:evenodd; clip-rule:evenodd"
viewBox="0 0 2928.08 2861.25"
 xmlns:xlink="http://www.w3.org/1999/xlink">
 <defs>
  <style type="text/css">
   <![CDATA[
    .fil0 {fill:#010002}
   ]]>
  </style>
 </defs>
 <g id="Capa_x0020_1">
  <metadata id="CorelCorpID_0Corel-Layer"/>
  <path class="fil0" d="M-0 2297.8l920.46 0c334.4,564.91 1014.89,720.68 1509.29,396.09 232.88,-152.89 394.04,-365.79 464.76,-641.37 14.17,-55.21 20.86,-158.04 33.58,-193.35l0 -140.59c-34.04,-90.86 -18.85,-370.46 -272.75,-634.81 -134.45,-139.98 -320.22,-293.26 -589.23,-334.54l0.1 -746.78 -2066.2 -2.45 0 2297.8zm1780.44 -1565.32c43.11,-19.99 89.69,-15.3 145.49,-7.37l1.62 -593.15 -1795.68 0.69 0.35 2029.77 728.72 1.77 -67.02 -291.32 -443.42 -8.18 0.16 -182.35 452.31 -0.53c14.84,-178.38 76.3,-314.96 144.17,-438.83l-596.49 -2.48 -0.06 -183.74 651.97 1.01c113.75,1.15 97.47,-3.97 155.49,-64.77 102.17,-107.05 401.87,-263.27 622.37,-260.53zm173.35 898.16c-83.48,-45.88 -141.74,-27.07 -222.97,15.16 -53.54,-25.5 -308.38,-233.12 -371.7,-281.57 -138.15,-105.67 -223.22,39.36 -99.93,126.36 48.76,34.4 88.61,68.03 132.91,101.46 39.98,30.16 241.27,182.77 254.51,202.43 37.63,55.84 17.21,93.53 74.63,145.21 93.68,84.32 242.02,62.42 301.84,-55.85 92.02,-181.96 -144.6,37.86 291.61,-398.13 72.43,-72.39 241.1,-201.8 137.07,-265.06 -84.54,-51.41 -224.36,131.56 -266.99,174.18 -63.73,63.72 -185.26,171.65 -230.99,235.82zm-1603.15 -1184.29l0.08 169.18 65.72 0 1249.32 0 16.11 0 0 -130.14 0.29 -52.92 -1331.59 0.05 0.07 13.83zm1464.13 2135.98c-122.79,84.04 -7.76,219.05 96.28,165.86 102.17,-52.23 18.77,-244.6 -96.28,-165.86zm-863.13 -876.35c-125.55,59.42 -26.25,235.95 88.11,171.24 92.75,-52.49 36.09,-230.02 -88.11,-171.24zm875.84 -869.16c-8.7,3.83 -92.63,24.43 -58.1,117.05 17.82,47.79 71.17,85.83 134.91,57.03 104.28,-47.11 40.29,-225.63 -76.81,-174.08zm862.79 866.11c-100.07,45.38 -55.92,220.03 74.07,181.26 110.42,-32.93 55.65,-240.09 -74.07,-181.26zm-909.83 -970.43l156.77 -0.08 1.75 -455.23c0.04,-44.05 8.96,-106.53 -11.41,-145.2l-1.62 593.15c-55.81,-7.93 -102.39,-12.63 -145.49,7.37z"/>
 </g>
</svg>
