<?xml version="1.0" encoding="UTF-8"?>
<!DOCTYPE svg PUBLIC "-//W3C//DTD SVG 1.1//EN" "http://www.w3.org/Graphics/SVG/1.1/DTD/svg11.dtd">
<!-- Creator: CorelDRAW 2017 -->
<svg xmlns="http://www.w3.org/2000/svg" xml:space="preserve" width="15.586mm" height="18.2708mm" version="1.1" style="shape-rendering:geometricPrecision; text-rendering:geometricPrecision; image-rendering:optimizeQuality; fill-rule:evenodd; clip-rule:evenodd"
viewBox="0 0 33.17 38.88"
 xmlns:xlink="http://www.w3.org/1999/xlink">
 <defs>
  <style type="text/css">
   <![CDATA[
    .fil3 {fill:#1A2965}
    .fil4 {fill:#41E2D1}
    .fil6 {fill:#42DED1}
    .fil1 {fill:#43E2CC}
    .fil9 {fill:#DBF5FC}
    .fil5 {fill:#DEF2F9}
    .fil2 {fill:#E1F1FA}
    .fil11 {fill:#F4FAFD}
    .fil10 {fill:#FAFAFA}
    .fil8 {fill:#FAFDFA}
    .fil7 {fill:#FAFEFC}
    .fil0 {fill:#FDFDFD}
   ]]>
  </style>
 </defs>
 <g id="Capa_x0020_1">
  <metadata id="CorelCorpID_0Corel-Layer"/>
  <path class="fil0" d="M12.28 30.81c0.3,-2.58 -0.01,-2.67 -0.88,-3.71l-3.32 -3.71c-0.32,-0.39 -0.7,-0.71 -1.12,-1.22 -0.8,-0.95 -0.68,-3.11 -0.2,-3.92 1.64,-0.35 1.31,0.73 1.36,1.98 0.05,1.17 0.75,1.5 1.42,2.25 0.71,0.79 2.65,3.22 3.32,3.59 0.23,-0.31 0.07,-0.35 0.42,-1.1 0.29,-0.63 0.28,-0.79 0.55,-1.45 0.27,-0.65 0.52,-0.52 0.72,-1.35 0.16,-0.63 0,-1.13 0.08,-1.81l-0.08 1.38c0.53,-0.22 0.18,-0.02 0.55,-0.23 -0.03,-2.13 1.15,-1.3 2.31,-2.19l-0.77 -0.71c-0.4,-0.27 -0.64,-0.37 -0.79,-0.84 -0.41,-1.25 1.55,-3.46 2.31,-3.64 0.96,-0.23 1.3,0.54 2.1,0.83l0.91 -0.49c0.39,-2.18 0.03,-2.61 3.06,-2.36 3.66,0.29 0.6,2.41 2.91,2.67l0.31 -0.51c-0.06,-11.04 -13.64,-16.42 -21.24,-9.54 -4.28,3.88 -6.24,10.3 -2.64,16.48 1.44,2.46 3.37,3.32 4.07,5.31 0.54,1.55 0.3,2.6 0.41,4.25l4.22 0.03z"/>
  <path class="fil1" d="M15.1 21.51c0.21,0.8 0.36,2 0.83,2.67 0.76,1.08 1.73,0.19 2.82,0.21 -0.15,1.16 -0.69,1.04 -0.53,2.57 0.05,0.1 3.52,3.06 4.64,0.76 0.31,-0.65 0.2,-0.69 0.63,-0.91 0.75,0.64 0.48,1.25 1.2,1.61 0.74,0.37 1.67,-0.06 2.32,-0.37 0.51,-0.24 1.32,-0.59 1.6,-1.14 0.54,-1.05 -0.26,-1.24 -0.25,-2.36l2.15 0.16c1.14,-1.27 0.8,-2.69 1.35,-3.33 -0.44,-2.27 -0.85,-0.92 -1.76,-1.85 -0.63,-1.46 1.57,-0.73 0.85,-2.8 -0.26,-0.76 -1.22,-1.76 -1.87,-2.48 -0.83,-0.3 -0.82,-0.14 -1.65,0.02l-0.31 0.51c-2.32,-0.26 0.75,-2.38 -2.91,-2.67 -3.03,-0.24 -2.67,0.19 -3.06,2.36l-0.91 0.49c-0.8,-0.3 -1.14,-1.06 -2.1,-0.83 -0.76,0.18 -2.72,2.39 -2.31,3.64 0.16,0.47 0.4,0.57 0.79,0.84l0.77 0.71c-1.16,0.89 -2.34,0.06 -2.31,2.19z"/>
  <path class="fil2" d="M12.85 26.07c0.33,0.65 0.39,0.48 0.78,0.97 0.33,0.41 0.31,0.41 0.34,1.1 0.05,0.95 -0.01,2.11 -0.03,3.08l-0.18 1.17c0.29,0.22 0.49,0.51 0.73,0.81 0.56,0.67 -0.03,0.47 0.67,0.72l-7.11 0c0.19,0.47 0.73,0.29 1.38,0.28 3.75,-0.07 7.99,0.09 11.62,-0.03l0.07 -1.63 -5.56 -0.06c-0.6,-0.58 -0.64,-0.85 -0.18,-1.48 0.97,-0.5 4.27,-0.18 5.59,-0.22l0.47 -1.03c1.69,-0.23 1.38,0.83 1.37,2.17 -0.03,4.82 -0.23,3.88 -6.22,3.94l0.85 0.41c0.64,0.38 0.53,0.09 0.91,0.72l-8.13 0.14 9.13 -0.01c0.49,-0.79 0.31,-0.9 1.48,-0.72 0.19,0.39 0.28,0.64 0.23,1.28 0.65,-0.2 0.05,-0.03 0.54,0.04l2.61 0.03c0.85,-0.1 2.36,-0.22 3.09,-0.79 0.81,-0.63 0.5,-0.29 1.16,-0.65l1.91 -1.51c0.57,-0.49 1.55,-2.37 2.02,-3.17 0.76,-1.3 0.16,-0.63 0.62,-2.26 0.33,-1.18 0.12,-3.89 -0.4,-4.96 -0.25,-0.5 -0.05,0.08 -0.3,-0.64l-0.31 -0.88c-0.25,-0.78 0.07,-0.73 -0.13,-1.53 -0.54,0.64 -0.21,2.06 -1.35,3.33l-2.15 -0.16c-0.01,1.12 0.79,1.31 0.25,2.36 -0.28,0.55 -1.1,0.9 -1.6,1.14 -0.65,0.32 -1.58,0.74 -2.32,0.37 -0.71,-0.36 -0.45,-0.97 -1.2,-1.61 -0.44,0.22 -0.32,0.26 -0.63,0.91 -1.11,2.29 -4.59,-0.67 -4.64,-0.76 -0.17,-1.53 0.38,-1.41 0.53,-2.57 -1.09,-0.01 -2.06,0.87 -2.82,-0.21 -0.47,-0.67 -0.63,-1.87 -0.83,-2.67 -0.37,0.21 -0.02,0.01 -0.55,0.23l0.08 -1.38c-0.08,0.68 0.08,1.18 -0.08,1.81 -0.21,0.82 -0.45,0.7 -0.72,1.35 -0.27,0.65 -0.26,0.82 -0.55,1.45 -0.35,0.75 -0.19,0.79 -0.42,1.1z"/>
  <path class="fil3" d="M13.77 32.39l0.18 -1.17c-0.52,-0.31 -0.79,-0.4 -1.67,-0.4l-4.22 -0.03c-0.11,-1.65 0.13,-2.7 -0.41,-4.25 -0.7,-1.99 -2.63,-2.84 -4.07,-5.31 -3.6,-6.18 -1.65,-12.6 2.64,-16.48 7.6,-6.88 21.18,-1.5 21.24,9.54 0.83,-0.16 0.82,-0.33 1.65,-0.02 0.16,-2.81 -1.19,-5.89 -2.37,-7.72 -2.93,-4.52 -8.31,-7.13 -14.01,-6.43 -10.16,1.25 -15.86,12.66 -10.92,21.43 2.05,3.63 3.72,3.66 4.35,5.92 0.44,1.56 -0.12,3.51 0.4,4.85 1.22,0.42 5.86,0.25 7.22,0.08z"/>
  <path class="fil3" d="M8.06 33.92c-0.28,-1.67 -1.59,-1.34 -1.72,-0.18 -0.07,0.65 0.13,1.22 0.46,1.57l1.25 0.77c-0.01,3.41 1.08,2.75 5.73,2.76 1.38,0 2.76,-0 4.14,0 1.98,0.01 2.35,0.16 3.15,-1.13 0.06,-0.64 -0.03,-0.89 -0.23,-1.28 -1.17,-0.18 -0.98,-0.07 -1.48,0.72l-9.13 0.01 -0.5 -0.16 -0.01 -1.08 6.88 -0.02c5.99,-0.06 6.2,0.88 6.22,-3.94 0.01,-1.35 0.32,-2.4 -1.37,-2.17l-0.47 1.03c-1.32,0.04 -4.62,-0.28 -5.59,0.22 -0.46,0.62 -0.42,0.89 0.18,1.48l5.56 0.06 -0.07 1.63c-3.63,0.13 -7.88,-0.04 -11.62,0.03 -0.64,0.01 -1.19,0.18 -1.38,-0.28z"/>
  <path class="fil4" d="M15.11 11.75c-0.68,0.98 -3.07,2.12 -3.36,2.82 -0.3,0.71 -0.11,4.88 -0.11,6.01 -0,0.85 -0.26,2.24 0.47,2.57 1.14,0.53 1.23,-0.84 1.22,-1.67 -0.12,-7.45 -0.53,-5.68 2.1,-7.72 1.44,-1.12 1.12,-0.38 1.46,-2.37 3.07,-1.74 1.73,-5.44 -1.12,-5.29 -1.27,0.07 -2.43,1.04 -2.52,2.4 -0.17,2.49 1.39,2.08 1.87,3.25z"/>
  <path class="fil5" d="M19.13 18.24c0.38,2.46 -0.25,2.68 -2.22,3.14 -0.09,2.47 0.98,1.03 2.63,1.22 0.42,0.27 1.08,0.96 1.12,1.59 0.05,0.94 -0.58,1.08 -0.54,2.12 0.44,0.23 0.68,0.37 1.29,0.45 0.4,-0.92 0.56,-1.82 1.92,-1.87 1.6,-0.05 1.61,0.76 2.16,1.83l1.29 -0.34c0.08,-1.3 -0.84,-1.66 0.25,-2.81 1.41,-1.48 1.04,-0.65 2.71,-0.73 0.21,-0.66 0.25,-0.63 0.29,-1.36 -1.52,-0.92 -1.24,0.58 -1.81,-2.52 -1.2,-0.09 -0.31,-0.07 -1.21,-0.42 -0.33,-0.13 -0.52,-0.11 -1.03,-0.2 0.33,0.92 0.62,0.87 0.63,2.06 0.05,3.77 -5.17,4.42 -6.21,0.96 -0.57,-1.89 0.6,-2.45 1.01,-3.54 -1.03,0.24 -1.38,0.61 -2.28,0.42z"/>
  <path class="fil1" d="M21.41 17.82c-0.41,1.09 -1.57,1.65 -1.01,3.54 1.03,3.46 6.26,2.81 6.21,-0.96 -0.02,-1.19 -0.3,-1.15 -0.63,-2.06l-0.48 -0.28c-2.32,-1.61 -3.11,-0.24 -4.09,-0.23z"/>
  <path class="fil6" d="M12.28 30.81c0.88,0 1.15,0.09 1.67,0.4 0.02,-0.96 0.08,-2.13 0.03,-3.08 -0.04,-0.69 -0.01,-0.69 -0.34,-1.1 -0.4,-0.49 -0.45,-0.32 -0.78,-0.97 -0.67,-0.37 -2.61,-2.8 -3.32,-3.59 -0.67,-0.75 -1.37,-1.07 -1.42,-2.25 -0.05,-1.25 0.28,-2.33 -1.36,-1.98 -0.48,0.81 -0.6,2.97 0.2,3.92 0.42,0.51 0.8,0.83 1.12,1.22l3.32 3.71c0.87,1.04 1.18,1.14 0.88,3.71z"/>
  <path class="fil4" d="M6.41 11.91c-3.52,1.57 -1,6.33 2.16,4.93 3.14,-1.39 1.14,-6.41 -2.16,-4.93z"/>
  <path class="fil7" d="M19.13 18.24c0.9,0.2 1.25,-0.17 2.28,-0.42 0.98,-0.01 1.77,-1.37 4.09,0.23l0.48 0.28c0.51,0.09 0.71,0.07 1.03,0.2 0.9,0.35 0.01,0.34 1.21,0.42 0.04,-1.1 0.56,-1.11 1.03,-1.8 -0.18,-0.51 -0.44,-0.82 -0.63,-1.14 -1.41,0.35 -0.94,1.2 -2.73,0.19 -1.82,-1.02 -0.94,-0.27 -1.41,-2.35l-1.35 -0.14c-0.7,1.8 0.6,1.44 -1.58,2.57 -2.25,1.17 -1.57,-0.03 -3.16,-0.25l-0.72 1.12 0.75 0.62c0.21,0.16 0.52,0.42 0.72,0.47z"/>
  <path class="fil8" d="M10.23 37.14l8.13 -0.14c-0.38,-0.63 -0.27,-0.33 -0.91,-0.72l-0.85 -0.41 -6.88 0.02 0.01 1.08 0.5 0.16z"/>
  <path class="fil9" d="M22.71 19.22c-1.62,0.77 -0.36,3.5 1.54,2.48 1.38,-0.74 0.52,-3.45 -1.54,-2.48z"/>
  <path class="fil10" d="M6.94 13.52c-1.19,0.7 -0.27,2.32 0.97,1.76 1.13,-0.51 0.4,-2.57 -0.97,-1.76z"/>
  <path class="fil11" d="M15.44 7.97c-0.36,0.24 -0.74,0.62 -0.45,1.31 0.19,0.45 0.89,0.79 1.54,0.39 0.98,-0.61 0.07,-2.46 -1.09,-1.69z"/>
 </g>
</svg>
