<?xml version="1.0" encoding="UTF-8"?>
<!DOCTYPE svg PUBLIC "-//W3C//DTD SVG 1.1//EN" "http://www.w3.org/Graphics/SVG/1.1/DTD/svg11.dtd">
<!-- Creator: CorelDRAW 2017 -->
<svg xmlns="http://www.w3.org/2000/svg" xml:space="preserve" width="79.375mm" height="79.375mm" version="1.1" style="shape-rendering:geometricPrecision; text-rendering:geometricPrecision; image-rendering:optimizeQuality; fill-rule:evenodd; clip-rule:evenodd"
viewBox="0 0 466.21 466.21"
 xmlns:xlink="http://www.w3.org/1999/xlink">
 <defs>
  <style type="text/css">
   <![CDATA[
    .fil0 {fill:black}
   ]]>
  </style>
 </defs>
 <g id="Capa_x0020_1">
  <metadata id="CorelCorpID_0Corel-Layer"/>
  <path class="fil0" d="M-0 385.49l0 6.09c32.71,38.92 32.01,31.05 54.3,8.76 6.92,-6.92 15.82,-14.69 21.46,-21.99l24.68 -37.48c5.68,-9.06 1.98,-8.5 16.38,-7.78l0.01 32.33c-21.49,0.14 -16.21,5.84 -15.54,63.25 -19.67,5.43 -89.87,17.65 -101.29,26.74l0 10.8 15.37 0c6.2,-5.15 37.72,-10.48 48.4,-12.87 8.31,-1.86 16.55,-3.8 25.2,-5.77 35.29,-8.07 27.74,0.22 27.31,-66.74l99.24 -0.33c35.73,0.19 17.2,-1.55 57.99,-40.61 9.13,-8.75 23.72,-29.39 32.64,-36.16l160.07 -0.79 0 -15.26 -100.9 -0.27c-0.99,-15.44 1.83,-50.87 -1.36,-62.87 -5.46,-20.52 -23.72,-14.19 -43.75,-21.61l4.96 -24.38 63.41 0.76 0.74 46.05 14.75 -0.05 -0.01 -151.17c12.48,-4.86 51.83,-24.08 62.16,-32.17l0 -6.29c-15.53,-13.23 -50.41,-22.4 -66.65,-35.65l-6.44 0c-10.12,13.25 -3.64,107.61 -4.63,132.14l-57.74 0.22c7.58,-18.4 18.37,-30.25 5.19,-53.99 -7.31,-13.16 -23.92,-25.6 -45.94,-23.36 -46.59,4.74 -50.32,64.9 -25.78,80.74l-28.9 26.97c-8.62,7.96 -20.01,16.85 -29.11,24.9 -7.15,6.32 -4.88,6.56 -15.16,11.62 -34.36,16.9 -29.96,20.31 -58.04,14.52 8.85,-13.56 21.11,-28.35 10.92,-53.11 -5.99,-14.54 -22.45,-28.19 -42.41,-28.34 -43.22,-0.33 -63.09,52.5 -31.04,80.35 -6.43,34.09 -42.06,72.96 -17.18,104.36 -11.51,31.34 -34.24,45.47 -53.3,68.47zm169.57 -80.61c5.31,9.12 2.12,45.8 1.81,59.36l57.99 -0.25c9.18,-4.91 56.38,-64.77 67.85,-72.99 14.45,-10.36 13.65,11.26 13.33,-35.51 -14.12,-0.94 -9.84,-1.23 -22.64,17.88 -5.28,7.88 -11.53,18.71 -17.69,25.85 -5.5,6.36 -37.85,39.83 -44.37,42.29 -6.59,0.45 -31.36,-24.76 -31.36,-30.7 3.02,-10.31 21.6,-25.05 29.34,-33.11 8.03,-8.36 16.73,-26.25 24.07,-37.46 -5.43,-8.84 -5.78,-8.75 -9.33,-20.19 -7.39,3.65 -13.44,9.91 -22.2,14.95 -8.06,4.64 -16.21,9.11 -23.93,13.45 -29.46,16.56 -20.55,15.71 -61.44,15.46l-4.86 17.58c19.48,2.78 42.13,3.14 43.42,23.41zm-169.57 -251.34l0 11.85c11.94,9.08 59.09,4.44 78.74,4.44 16.62,0 70.72,2.81 82.1,-2.24 8.09,-22.55 -11.68,-51.95 -46.99,-51.42 -12.49,0.19 -7.57,1.38 -15.82,-4.36 -11.9,-8.29 -17.04,-6.43 -28.61,-11.81l-15.88 0c-5.29,2.49 -12.25,3.39 -19.48,7.05 -27.46,13.87 -28.23,34.08 -34.06,46.5zm82.41 171.75c-4.14,15.41 -24.81,57.1 -22.47,70.76 4.71,27.5 47.15,16.36 70.81,24.72l1.24 44.64 23.58 -0.05c-0.66,-40.99 7.52,-60.7 -10.07,-65.37 -2.89,-0.77 -8.61,-1.38 -12.3,-1.97 -9.66,-1.53 -16.53,-2.08 -23.51,-5.55 -0.83,-14.17 4.55,-34.68 11.24,-42.96 21.11,-3.72 31.81,4.08 49.82,-6.24 6.22,-3.57 30.53,-16.24 34.91,-21.58 -2.36,-4.2 -2.84,-4.67 -4.71,-8.94 -17.34,2.71 -34.25,20.95 -51.45,19.42 -24.92,-2.21 -38.32,-6.9 -67.09,-6.9zm244 61.64l23.14 0.74 -0.6 -62.71c-12.55,-3.83 -32.2,-4.94 -43.99,-9.75 -2.74,-11.27 5.43,-47.39 9.28,-50.15 15.84,-6.69 53.78,0.66 74.21,-2.45l0.18 -14.43c-24.69,-2.27 -81.85,-0.62 -111.37,-0.76 -12.71,33.59 -33.4,68.28 -15.2,83.73 10.05,8.53 35.1,7.66 50.87,9.06 13.73,1.22 13.35,2.67 13.42,16.58 0.05,10.07 -0.43,20.03 0.06,30.15zm-309.86 -232.32l129.79 0.01c-3.62,-12.79 -14.53,-23.71 -30.17,-23.25 -13.12,0.39 -10.24,5.77 -20.8,-2.28 -41.95,-31.99 -75.13,-1.21 -78.82,25.52zm269.05 17.04c-39.74,14.24 -18.59,70.9 19.1,59 13.21,-4.17 26,-19.38 20.21,-38.78 -4,-13.41 -19.44,-27.35 -39.31,-20.23zm-191.26 77.55c-43.2,11.34 -23.7,71.06 16.54,59.09 13.3,-3.96 25.38,-20.77 19.78,-38.47 -4.41,-13.93 -17.9,-25.45 -36.31,-20.62zm119.58 161.62l11.79 12.26c21.77,-17.21 44.3,-45.1 56.7,-70.15l-21.36 -3.28c-7.4,8.12 -14.06,23.27 -20.27,32.61 -6.8,10.24 -19.03,18.89 -26.86,28.56zm-194.79 76.87l11.51 12.77c7.54,-5.51 26.43,-24.84 32.81,-32.45 5.52,-6.58 21.9,-31.01 24.26,-37.15l-21.39 -3.43c-15.03,19.75 -16.02,35.93 -47.2,60.27zm385.19 -330.66l35.05 -17.48c-3.97,-4.28 -30.38,-16.64 -35.13,-18.64l0.09 36.12zm-191.25 146.04l5.88 10.67c21.7,-11.28 27.86,-21.99 33.3,-45.36l-29.62 25.27c-4.56,4.72 -5.26,5.47 -9.56,9.41zm16.31 160.92l-57.99 0.25c0.31,-13.56 3.5,-50.23 -1.81,-59.36 -0.69,12.94 -2.46,50.36 1.5,60.7l44.47 0.71c1.56,0.02 7.15,0.2 8.31,0.04 8.37,-1.13 2.64,0.55 5.53,-2.35zm-82.29 -262.82l16.16 0.28 0.27 -15.95 -15.96 -0.4 -0.47 16.07zm31.1 -0.06l16.06 0.31 0.42 -15.95 -15.97 -0.28 -0.51 15.93zm-62.04 -0.02l15.93 0.32 0.35 -15.92 -15.86 -0.37 -0.42 15.97zm32.69 -1.35l12.91 -0.09 -0.07 -12.75 -12.93 0.16 0.1 12.68zm31.06 -0.12l13.14 -0.09 -0.11 -12.36 -13.18 0 0.15 12.45zm-61.85 0.12l12.49 -0.09 0 -12.75 -12.56 0.07 0.07 12.76z"/>
 </g>
</svg>
