<?xml version="1.0" standalone="no"?>
<!DOCTYPE svg PUBLIC "-//W3C//DTD SVG 20010904//EN"
 "http://www.w3.org/TR/2001/REC-SVG-20010904/DTD/svg10.dtd">
<svg version="1.0" xmlns="http://www.w3.org/2000/svg"
 width="292.000000pt" height="300.000000pt" viewBox="0 0 292.000000 300.000000"
 preserveAspectRatio="xMidYMid meet">

<g transform="translate(0.000000,300.000000) scale(0.100000,-0.100000)"
fill="#000000" stroke="none">
<path d="M1440 2852 c-86 -42 -83 -157 5 -207 17 -10 16 -16 -15 -110 -18 -55
-35 -103 -39 -107 -3 -4 -56 -12 -117 -18 -277 -26 -436 -106 -541 -271 -18
-29 -40 -73 -48 -99 -14 -43 -19 -48 -51 -53 -86 -14 -153 -112 -161 -236 -9
-118 54 -236 142 -265 36 -13 42 -19 61 -72 55 -157 135 -252 267 -318 58 -28
77 -42 72 -54 -27 -70 -32 -275 -9 -393 19 -101 52 -168 110 -224 81 -79 242
-116 411 -95 167 21 273 97 321 231 44 123 51 327 16 489 -5 22 1 28 48 51
115 57 218 183 255 313 13 48 21 58 63 84 160 100 155 386 -8 475 -44 24 -52
34 -71 87 -62 170 -218 286 -436 326 -134 25 -123 16 -161 137 l-34 108 40 38
c33 31 40 45 40 75 0 52 -25 95 -65 112 -44 18 -53 18 -95 -4z m68 -109 c3
-28 -1 -33 -23 -39 -29 -7 -55 10 -55 35 0 25 22 42 50 39 20 -2 26 -9 28 -35z
m255 -538 c240 -49 348 -199 349 -485 0 -218 -62 -357 -197 -435 -47 -28 -180
-65 -234 -65 -66 0 -68 -15 -7 -43 97 -45 138 -140 138 -318 -1 -151 -47 -256
-134 -300 -51 -26 -217 -38 -283 -20 -102 27 -162 99 -186 219 -14 75 -7 205
16 280 22 72 84 137 148 154 26 6 47 15 47 18 0 3 -36 13 -80 22 -250 52 -359
198 -360 481 0 215 69 370 197 439 134 73 380 95 586 53z"/>
<path d="M1773 2009 c-70 -45 -96 -174 -50 -253 32 -57 69 -81 125 -81 87 0
151 75 152 178 0 62 -19 105 -64 145 -30 26 -45 32 -84 32 -30 0 -58 -8 -79
-21z"/>
<path d="M1170 1957 c-93 -62 -105 -211 -25 -292 56 -56 125 -59 185 -9 44 38
63 81 63 144 0 140 -122 226 -223 157z"/>
<path d="M1490 1030 c-43 -43 -11 -120 48 -120 35 0 72 37 72 71 0 57 -80 89
-120 49z"/>
<path d="M1496 829 c-52 -41 -25 -119 42 -119 66 0 94 69 47 115 -30 30 -54
31 -89 4z"/>
</g>
</svg>
