<?xml version="1.0" encoding="UTF-8"?>
<!DOCTYPE svg PUBLIC "-//W3C//DTD SVG 1.1//EN" "http://www.w3.org/Graphics/SVG/1.1/DTD/svg11.dtd">
<!-- Creator: CorelDRAW 2017 -->
<svg xmlns="http://www.w3.org/2000/svg" xml:space="preserve" width="55.1937mm" height="64.2115mm" version="1.1" style="shape-rendering:geometricPrecision; text-rendering:geometricPrecision; image-rendering:optimizeQuality; fill-rule:evenodd; clip-rule:evenodd"
viewBox="0 0 926.13 1077.45"
 xmlns:xlink="http://www.w3.org/1999/xlink">
 <defs>
  <style type="text/css">
   <![CDATA[
    .fil0 {fill:black}
   ]]>
  </style>
 </defs>
 <g id="Capa_x0020_1">
  <metadata id="CorelCorpID_0Corel-Layer"/>
  <path class="fil0" d="M57.74 704.51c9.69,16.38 8.01,10.96 21.82,23.68l-10.63 42.39c90.44,48.08 -61.29,167.41 156.7,152.61 100.98,-6.85 131.72,16.38 164.61,153.93l423.63 0.34c-13.56,-84.91 -90.23,-166.33 -43.03,-301.26 47.95,-137.07 92.1,-144.25 134.33,-244.43 41.18,-97.68 15.96,-228.7 -26.23,-314.81 -96.96,-197.88 -341.25,-246.01 -531.39,-201.77 -113.39,26.38 -174.84,79.04 -215.87,163.22 -86.23,176.93 9.92,239.5 -47.7,307.39 -20.88,24.61 -88.6,69.53 -83.73,105.51 8.05,59.49 91.7,1.89 57.49,113.2zm569.07 -463.58l-28.17 7.14c-24.63,-15.94 -25.5,-46.31 -53.37,-33.95 -9.26,17.48 6.27,40.14 10.98,59.45 -8.18,7.61 -13.93,13.51 -22.89,20.61 -22.87,-6 -39.53,-18.36 -59.68,-12.67 -5.41,28.17 15.91,35.74 36.65,48.05 -8.57,65.14 -23.47,25.64 -62.63,49.39 -1.37,61.85 50.48,-16.28 62.63,67.84 -17.28,11.41 -45.29,19.58 -35.22,44.63 19.71,12.42 33.57,-5.97 65.3,-7.98 11.76,20.79 18.4,12.29 11.11,37.54 -5.86,20.31 -15.96,22.5 -6.26,41.3 18.51,17.69 31.11,-17.8 53.28,-35.29l27.23 8.55 12.24 55.78c37.02,-1.14 22.48,-0.46 30.17,-35.53 6.26,-28.59 5.59,-21.43 36.91,-27.71 16,16.53 26.25,44.17 47.36,35.46 17.96,-14.96 -3.38,-23.26 -6.73,-60.29l21.38 -20.5c27.53,5.14 41.4,23.12 56.13,6.19 12.47,-17.24 6.66,-9.74 -7.93,-24.18 -10.76,-10.65 -16.73,-14.04 -25.65,-21.33 5.79,-26.69 -0.4,-28.24 21.47,-35.48 28.44,-9.43 36.81,8.17 41.96,-23.09 -11.39,-19.81 -13.71,-9.01 -38.4,-15.54 -26.32,-6.96 -15.8,-2.29 -24.47,-31.81 21.12,-35.98 47.84,-25.73 35.91,-49.6 -10.86,-21.73 -19.7,-3.72 -60.65,6.4l-20.34 -21.5c4.29,-30.52 21.26,-38.92 7.32,-59.88 -24.04,-9.78 -32.99,19.94 -45,35.6 -34.81,-7.07 -32.97,1.81 -39.36,-28.64 -6.82,-32.43 5.9,-34.45 -28.11,-34.53l-13.18 55.58zm-384.72 -27.64c5.72,27.44 19.61,18.51 11.94,39.52 -9.43,25.85 -20.26,-2.41 -41.05,22.32 68.66,22.41 1.88,50.35 1.65,50.54 9.24,7.67 27.58,4.63 40.07,9.85 4.51,43.85 -10.21,14.04 -8.82,46.84 17.54,-3.53 24.1,-16.4 37.07,-12.21 24.31,7.87 1.46,21.2 18.39,41.54 15.31,-18.43 4.4,-25.42 25.61,-27.94 22.99,-2.74 15.44,7.09 28.91,26.27 1.06,-1.37 1.91,-5.59 2.21,-4.71 0.3,0.87 1.65,-3.55 2.02,-4.73 0.37,-1.15 1.28,-3.35 1.68,-4.77l3.87 -22.8c31.91,-8.61 22.3,8.01 44.68,8.19 6.37,-26.88 -16.71,-8.39 -9.43,-35.55 7.48,-27.91 20.87,-3.54 41.57,-19.99 -15.12,-13.13 -28.23,-7.85 -27.17,-29.28 1.12,-22.66 12.04,-10.01 27.96,-30.43 -22.11,-8.69 -30.81,7.81 -41.87,-14.01 -6.25,-12.33 6.91,-20.42 12.46,-37.53 -27.41,1.39 -21.23,14 -38.69,8.73 -28.04,-8.47 -1.32,-16.15 -19.29,-39.57 -16.32,14.97 -9.47,27.71 -29.36,26.89 -21.8,-0.9 -9.66,-14.15 -29.84,-27.58 -11.16,26.52 9.82,27.01 -14.08,39.4 -16.45,8.53 -14.49,-5.4 -40.48,-8.98zm400.76 91.57c-119.42,19.86 -86.15,180.6 20.56,164.78 110.32,-16.35 76.16,-180.87 -20.56,-164.78zm-326.32 -57.15c-73.82,22.9 -35.85,117.85 28.68,97.17 63.65,-20.39 30.56,-115.56 -28.68,-97.17z"/>
 </g>
</svg>
