<?xml version="1.0" encoding="UTF-8"?>
<!DOCTYPE svg PUBLIC "-//W3C//DTD SVG 1.1//EN" "http://www.w3.org/Graphics/SVG/1.1/DTD/svg11.dtd">
<!-- Creator: CorelDRAW 2017 -->
<svg xmlns="http://www.w3.org/2000/svg" xml:space="preserve" width="77.6537mm" height="52.3993mm" version="1.1" style="shape-rendering:geometricPrecision; text-rendering:geometricPrecision; image-rendering:optimizeQuality; fill-rule:evenodd; clip-rule:evenodd"
viewBox="0 0 690.25 465.77"
 xmlns:xlink="http://www.w3.org/1999/xlink">
 <defs>
  <style type="text/css">
   <![CDATA[
    .fil0 {fill:black}
   ]]>
  </style>
 </defs>
 <g id="Capa_x0020_1">
  <metadata id="CorelCorpID_0Corel-Layer"/>
  <path class="fil0" d="M148.1 302.4c-23.8,-0.09 -116.34,-3.51 -131.28,3.87 -14.96,7.39 -22.75,30.39 -11.42,47.99 11.12,17.27 29.57,15.02 54.89,14.93 132.08,-0.46 120.28,14.75 161.69,-45.97 5.27,-7.72 9.46,-12.89 14.4,-19.96 2.8,-4.01 3.85,-6.09 6.24,-9.39l10.02 -10.94 0.23 181.56 184.88 1.29 0.2 -183.53c16.58,16.59 44.97,66.6 57.49,77.64 20.03,17.66 99.88,9.3 132.42,9.37 23.95,0.05 44.17,3.95 56.17,-13.64 12.56,-18.41 4.46,-41.53 -10.14,-48.87 -16.94,-8.52 -111.69,-4.22 -137.74,-4.15l-66.39 -98.95c-30.63,-44.3 -61.4,-40.68 -127.26,-40.68 -67.7,-0 -92.2,-2.87 -123.83,40.96 -10.37,14.37 -59.51,93.58 -70.59,98.48z"/>
  <path class="fil0" d="M321.39 4.15c-95.96,31.39 -46.47,174.64 49.41,141.72 31.36,-10.77 59.17,-48.81 45.94,-92.91 -10.61,-35.37 -49.05,-63.96 -95.35,-48.82z"/>
  <path class="fil0" d="M567.11 145.86c1.07,0.59 44.13,6.84 18.46,32.91 -4.02,4.08 -13.54,10.37 -22.4,6.96 -11.36,-4.38 -7.22,-16.06 -9.02,-24.87 -14.71,2.26 -18.01,8.11 -32.58,24.6 6.15,10.03 71.37,78.55 85.89,84.1 8.39,-12.18 19.02,-15.25 22.92,-30.17 -11.95,-7.5 -15.95,2.96 -24.13,-9.43 -4.76,-7.22 -0.5,-18.45 3.85,-23.38 4.34,-4.93 24.14,-16.33 31.35,3.47 2.47,6.78 0.8,9.16 5.24,14.5l30.76 -28.88c-6.01,-11.78 -26.43,-27.69 -29.92,-37.86 7.07,-5.05 46.31,-5.41 18.18,-34.23 -7.05,-7.22 -23.23,-17.06 -30.27,1.39 -3.91,10.24 2.29,3.86 -4.42,15.54 -16.47,-3.18 -24.05,-18.71 -34.49,-27.66 -12.39,7.92 -26.11,19.37 -29.41,32.99z"/>
  <path class="fil0" d="M98.77 138.3c18.28,12.86 10.39,28.97 -0.71,39.08 -18.67,16.99 -21.41,11.64 -23.4,44.49 31.72,0 22.71,1.77 30.76,-15.27 5.52,-11.66 4.26,-6.31 14.01,-14.19 10.98,-8.87 19.44,-15.88 21.08,-31.69 5.67,-54.6 -68.07,-62.67 -93.18,-34.11 -31.47,35.78 8.93,70.04 18.5,31.33 4.52,-18.27 12.23,-26.27 32.93,-19.64z"/>
  <path class="fil0" d="M74.43 263.43c18.43,19.04 43.65,-5.55 30.27,-23.91 -12.07,-16.56 -47.28,-4.51 -30.27,23.91z"/>
 </g>
</svg>
