<?xml version="1.0" encoding="UTF-8"?>
<!DOCTYPE svg PUBLIC "-//W3C//DTD SVG 1.1//EN" "http://www.w3.org/Graphics/SVG/1.1/DTD/svg11.dtd">
<!-- Creator: CorelDRAW 2017 -->
<svg xmlns="http://www.w3.org/2000/svg" xml:space="preserve" width="67.2833mm" height="39.8751mm" version="1.1" style="shape-rendering:geometricPrecision; text-rendering:geometricPrecision; image-rendering:optimizeQuality; fill-rule:evenodd; clip-rule:evenodd"
viewBox="0 0 1203.56 713.28"
 xmlns:xlink="http://www.w3.org/1999/xlink">
 <defs>
  <style type="text/css">
   <![CDATA[
    .fil0 {fill:black}
    .fil1 {fill:#050505}
    .fil2 {fill:white}
   ]]>
  </style>
 </defs>
 <g id="Capa_x0020_1">
  <metadata id="CorelCorpID_0Corel-Layer"/>
  <path class="fil0" d="M628.55 374.58c-43.28,5.09 -64.95,-17.68 -76.03,-49.99 -11.39,-33.22 -4.08,-58.36 -2.64,-85.22 0.44,-8.3 0.89,4.24 0.26,-9.99 -2.06,-46.5 -57.85,6.83 -96.78,33.78l-186.66 128.91c-21.83,16.25 -81.29,53.07 -48.05,95.44 54.29,64.54 204.27,-105.45 255.26,-90.54 -1.55,48.78 -206.8,94.4 -167.06,167.03 35.53,64.94 175.76,-84.05 223.34,-84.47 9.29,26.95 -1.11,22.24 -64.08,61.41 -26.17,16.28 -63.32,33.99 -83.04,55.01 7.17,144.03 191.81,-42.4 227.79,-40.55l1.81 13.51c-3.1,12.7 -9.19,14.35 -16.88,19.44 -28.58,18.87 -95.1,52.21 -106.58,79.65 29.63,27.27 37.63,34.75 82.31,10.33 14.89,-52.33 3.27,-84.01 75.01,-77.72 7.12,-45.84 19.23,-68.14 67.45,-70.05 7.72,-59.19 48.61,-74.78 106.28,-57.51 18.1,-72.55 83.98,-47.59 114.7,-8.33 20.32,-8.42 2.94,-0.05 23.08,-12.63 7.21,-4.51 11.99,-8.02 17.57,-11.6l-131.95 -255.53c-39.75,-71.26 -16.2,-64.91 -100.36,-88.53 -45.53,-12.78 -110.94,-34.31 -157.67,-34.05 23.61,31.14 111.12,64.44 111.31,129.64 0.11,39.09 -51.6,161.56 -68.37,182.58z"/>
  <path class="fil0" d="M826.97 97.41l198.89 374.03 177.69 -94.33c-19.45,-59.23 -181.16,-332.72 -193.67,-377.12 -27.92,8.02 -164.27,79.67 -182.92,97.41z"/>
  <path class="fil0" d="M-0 388.07c55.73,14.81 117.05,67.59 174.91,83.92 11.7,-42 165.04,-302.37 191.93,-374.58 -16.22,-14.71 -144.26,-80.13 -168.68,-88.57l-198.16 379.22z"/>
  <path class="fil0" d="M254.83 369.92l278.82 -193.25c16.49,10.08 29.85,16.61 47.52,28.02 -4.82,58.18 -34.26,130.81 37.62,147.26 15.5,-43.03 74.75,-156.04 38.31,-194.96 -91.95,-98.24 -144.9,-123.42 -257.47,-48.46 -20.18,13.44 -38.07,55.78 -51.74,80.71 -29.38,53.56 -71.07,126.09 -93.06,180.69z"/>
  <path class="fil0" d="M763.04 494.09c-16.49,7.65 -25.57,7.87 -22.7,38.02 0.01,0.07 32.1,108.19 92.33,72.79 40.47,-23.78 15.83,-49.1 -0.26,-74.23 -14.17,-22.14 -29.89,-54.89 -69.37,-36.58z"/>
  <path class="fil0" d="M757.15 655.1c12.76,-39.35 3.01,-41.56 -17.2,-69.89 -13.42,-18.82 -32.69,-45.22 -57.59,-17.69 -19.56,21.63 -10.48,113.2 74.78,87.58z"/>
  <path class="fil1" d="M880.72 555.73c70.6,-14.41 51.27,-92.37 3.49,-102.9 -71.08,-15.66 -35.22,77.78 -3.49,102.9z"/>
  <path class="fil1" d="M672.8 699.44c5.92,-48.09 -9.07,-84.34 -62.9,-71.05 -11.49,20.57 -13.92,45.28 1.46,66.27 19.9,27.18 33.74,20.84 61.44,4.77z"/>
  <path class="fil2" d="M1080.69 339.18c-48.46,-12.54 -49.43,29.96 -30.28,42.82 22.77,15.29 55.44,-3.93 30.28,-42.82z"/>
  <path class="fil2" d="M153.2 368.76c-0.16,-55.11 -45.84,-34.64 -49.49,-11.75 -5.26,32.93 28.04,38.33 49.49,11.75z"/>
 </g>
</svg>
