<?xml version="1.0" encoding="UTF-8"?>
<!DOCTYPE svg PUBLIC "-//W3C//DTD SVG 1.1//EN" "http://www.w3.org/Graphics/SVG/1.1/DTD/svg11.dtd">
<!-- Creator: CorelDRAW 2017 -->
<svg xmlns="http://www.w3.org/2000/svg" xml:space="preserve" width="88.2132mm" height="19.5378mm" version="1.1" style="shape-rendering:geometricPrecision; text-rendering:geometricPrecision; image-rendering:optimizeQuality; fill-rule:evenodd; clip-rule:evenodd"
viewBox="0 0 8954.77 1983.34"
 xmlns:xlink="http://www.w3.org/1999/xlink">
 <defs>
  <style type="text/css">
   <![CDATA[
    .fil3 {fill:black}
    .fil5 {fill:#C5C6C2}
    .fil2 {fill:#D6D7D4}
    .fil10 {fill:#EAEBE9}
    .fil1 {fill:#F40000}
    .fil0 {fill:#F51313}
    .fil7 {fill:#F52D2D}
    .fil8 {fill:#F73D3D}
    .fil6 {fill:#F85555}
    .fil9 {fill:#F97070}
    .fil12 {fill:#FA8787}
    .fil15 {fill:#FB9999}
    .fil13 {fill:#FBACAC}
    .fil11 {fill:#FCC3C3}
    .fil14 {fill:#FDDCDC}
    .fil4 {fill:#FEFEFE}
   ]]>
  </style>
 </defs>
 <g id="Capa_x0020_1">
  <metadata id="CorelCorpID_0Corel-Layer"/>
  <path class="fil0" d="M4577.55 1054.86c3.91,38.79 53.4,97.36 76.77,126.4 91.62,113.81 231.53,205.1 386.61,240.61 345.83,79.18 674.13,-95.1 817.08,-387.76 126.29,-258.56 78.8,-595.4 -119.9,-798.78l-115.31 -95.35c-7.23,13.46 15.34,55.61 10.67,98.97 -2.01,18.63 -19.31,82.91 -25.92,104.56 -65.94,216 -332.96,472.25 -512.68,581.22 -14.7,8.91 -28.64,15.29 -42.97,25.47 -95.01,67.47 -263.97,135.65 -383.94,134.49 -26.38,-0.25 -41.61,-1.85 -59.59,-13.03 -46.57,-28.96 -7.7,-11.17 -9,-19.9l-21.83 3.1z"/>
  <path class="fil1" d="M1300.03 554.21c-274.17,33 -416.57,237.68 -381.2,538.22 32.6,276.98 241.33,415.62 548.15,381.24 273.78,-30.69 409.94,-237.5 376.36,-541.45 -30.24,-273.72 -240.27,-414.49 -543.31,-378.01z"/>
  <path class="fil1" d="M3320.91 1459.34l418.99 2.68c302.11,-0.2 408.24,-187.82 408.24,-466.26 0,-198.06 -85.87,-347.33 -228.35,-403.46 -88.62,-34.91 -488.88,-39.29 -598.88,-25.73l0 892.77z"/>
  <path class="fil1" d="M31.28 815.27c0,114.25 71.98,175.59 143.45,213.61 89.78,47.77 169.85,53.8 267.19,84.72 159.35,50.62 99.98,157.39 27.9,178.68 -171.38,50.63 -201.02,-121.72 -210.78,-143.16l-255.77 13.46c-21.6,88.77 70,209.57 107.45,239.5 129.83,103.74 482.87,106.88 615.83,-24.72 59.14,-58.53 114.72,-182.27 70.13,-300.46 -87.1,-230.85 -441.05,-166.38 -506.18,-278.83 1.48,-69.21 58.11,-89.59 130.11,-75.62 80.57,15.63 69.04,58.93 104.88,111.6l253.6 -14.18c9.23,-90.31 -62.72,-174.22 -104.14,-205.91 -138.97,-106.31 -643.65,-114.75 -643.65,201.29z"/>
  <polygon class="fil1" points="1995.17,1462.02 2673.08,1462.02 2706.44,1459.97 2706.07,1240.16 2674.17,1238.24 2274.5,1238.56 2274.54,569.21 2244.59,562.82 1995.17,563.87 "/>
  <path class="fil2" d="M5474.6 1690.79l-11.83 55.48 -89.87 6.54c-1.45,1.74 -2.26,4.82 -2.92,6.14 -0.64,1.29 -2.06,4.49 -2.87,6.03l-40.45 35.71c-1.08,-1.94 -4.76,1.5 -6.81,2.98l0.8 51.57c13.03,8.07 17.47,1.08 31.52,12.55 15.24,12.45 10.24,-25.77 11.5,28.51l60.81 4.15c7.45,8.63 8.79,-12.56 10.71,28.34 38.62,0.35 104.86,0.96 141.53,6.31 70.65,10.3 18.81,9.69 50.85,22.77 42.12,17.19 454.28,16.12 493.11,8.33 41.95,-8.41 7.7,-8.21 44.41,-22.41l136.68 -11.87c110.9,-3.05 -0.21,-25.66 170.16,-36.81l0.02 -31.3 36.33 0 0.97 -71.41c-60.98,-0.88 -14.36,4.01 -43.93,-24.21 -38.91,-37.12 -24.86,2.63 -28.77,-36.62l-143.55 -15.03 -3.66 -34.57c-116.04,9.25 -286.29,-1.49 -409.32,-1.47 -95.63,0.01 -331.63,-8.38 -405.4,10.27z"/>
  <path class="fil3" d="M6971.91 1449.99l104.9 1.47 76.8 -268.99 313.67 -2.01 80.85 270.21 113.11 0.7c-15.72,-78.44 -207.17,-624.38 -262.01,-788.78 -7.09,-21.23 -12.39,-37.16 -19.05,-58.12 -20.66,-64.93 -16.33,-51.54 -125.09,-50l-283.18 895.52z"/>
  <path class="fil1" d="M2841.72 1456.69l29.95 6.4 250.49 -1.07 -1.08 -898.14c-63.01,0 -229.06,-8.44 -279.36,5.34l0 887.48z"/>
  <path class="fil3" d="M7802.54 1153.14l-96.14 3.93c16.47,205.6 131.9,338.15 358.73,304.6 247.44,-36.61 264.96,-306.33 189.44,-408.18 -124.21,-167.59 -396.36,-107.73 -422.32,-248.55 -20.43,-110.76 67.94,-160.89 170.54,-159.7 112.69,1.31 161.36,60.48 174.69,167.35l93.99 -6.07c-3.64,-193.22 -172.77,-329.62 -383.27,-252 -177.44,65.45 -215.35,316.25 -56.07,422.88 112.64,75.4 451.2,80.49 350.51,292.69 -34.6,72.92 -140.44,105.15 -237.4,75.66 -90.69,-27.6 -131.4,-88.51 -142.71,-192.61z"/>
  <path class="fil3" d="M6933.4 1162.82l-97.14 -27.76c-21.56,75.4 -30.13,122.8 -79.25,170.45 -108.22,104.97 -352.84,94.38 -372.91,-266.6 -8.71,-156.57 28.94,-315.25 137.55,-372.8 154.17,-81.68 277.46,26.04 302.15,160.44l95.19 -26.35c-22.65,-359.83 -671.28,-409.35 -636,238.79 11.23,206.18 92.79,387.73 275.74,421.05 209.79,38.22 357.97,-119.94 374.66,-297.22z"/>
  <path class="fil4" d="M1331.22 767.98c-118.41,29.62 -147.38,154.92 -135.38,296.56 11.37,134.16 85.17,230.68 239.06,196.42 197.77,-44.03 197.07,-568.2 -103.69,-492.98z"/>
  <polygon class="fil3" points="8369.52,660.54 8613.12,660.56 8613.12,1451.28 8712.06,1449.7 8712,660.56 8954.77,660.16 8953.67,554.14 8375.66,553.05 "/>
  <path class="fil5" d="M5574.25 1759.51l-72.08 2.72 -2.51 100.75 78.36 4.16 0.01 28.59c281.18,15.26 367.17,13.12 646.45,0.68l-0.04 -29.79 134.19 -7.9 -1.67 -92.45 -55.79 -3.38c-14.27,-5.49 1.36,-24.08 -35.35,-29.95 -81.04,-12.93 -590.79,-7.23 -678.04,-6.48l-13.52 33.04z"/>
  <path class="fil6" d="M4498.6 793.67c-7.92,30.71 -1.38,83.45 18.29,105.19 16.86,-6.39 3.43,-4.32 22.14,9.86 75.7,57.35 139.43,37.46 232.41,8.81 19.47,-5.99 16.87,-2.65 34.2,-10.21 9.45,-28.38 0.53,27.27 -0.44,-5.96 -0.15,-5.5 -2.97,1.52 0.44,-7.67 22.19,-10.12 42.62,-10.15 66.74,-20.67 14.33,-6.24 36.41,-18.66 56.71,-29.25 40.19,-20.98 69.03,-42.79 105.64,-66.16 107.47,-68.59 158.56,-131.25 233.29,-196.44 74.91,-65.35 79.88,-99.52 111.23,-146.48l33.23 -54.14c25.69,-66.06 57.99,-58.93 68.84,-173.33l10.13 39.72c2.81,-75.63 17.74,-137.29 -25.15,-181.21l16.03 -3.12c-27.31,-30.94 -92.44,-38.09 -134.89,-47.9 12.69,18.57 28.86,22.82 44.55,33.73 9.68,116.2 9.46,119.39 -21.22,203.76l-45.28 102.1c-3.12,6.85 -6.48,12.08 -9.5,16.89l-54.84 65.4c-1.13,1.45 -2.57,3.56 -3.72,5l-147.74 162.01c-61.99,55.45 -217.02,166.3 -294.1,195.9 -79.31,30.45 -287.65,107.93 -311.52,-24.46l-5.46 18.62z"/>
  <path class="fil7" d="M4551.86 1001.18c1.19,20.33 -4.68,5.27 5.1,28.01 12.3,28.64 8.2,15.62 20.59,25.67l21.83 -3.1c1.3,8.73 -37.57,-9.07 9,19.9 17.98,11.19 33.2,12.78 59.59,13.03 119.97,1.16 288.94,-67.03 383.94,-134.49 14.33,-10.18 28.27,-16.56 42.97,-25.47 179.72,-108.97 446.74,-365.22 512.68,-581.22 6.61,-21.65 23.91,-85.93 25.92,-104.56 4.67,-43.37 -17.9,-85.51 -10.67,-98.97 -7.44,-9.22 -4.73,-6.99 -14.15,-15.47 -3.5,-3.15 -11.68,-9.75 -15.21,-12.09 -12.2,-8.14 -24.24,-13.66 -39.21,-15.95 -19.64,25.18 -3.37,1.83 5.96,40.85 4.54,19.02 4.47,39.49 3.27,59.16 -1.8,29.67 -10.33,77.61 -19.24,102.54 -20.96,58.74 -51.43,107.55 -83.59,156.86 -43.64,66.9 11.21,34.81 -75.44,113.48 -154.58,140.34 -217.28,238.98 -439.39,351.4 -21.71,10.99 -24.75,14.6 -42.71,26.3 -31.45,20.49 -288.85,102.39 -340.33,33.74 -13.07,17.21 -11.75,-20.79 -10.9,20.38z"/>
  <path class="fil4" d="M3600.2 1255.79c207.28,0 266.5,-8.19 266.5,-251.44 0,-226.11 -97.85,-234.25 -266.46,-234.25l-0.04 485.69z"/>
  <path class="fil8" d="M4516.89 898.86c-0.9,35.1 10.12,82.31 34.97,102.32 -0.84,-41.17 -2.17,-3.18 10.9,-20.38 51.48,68.64 308.88,-13.26 340.33,-33.74 17.96,-11.7 20.99,-15.31 42.71,-26.3 222.11,-112.42 284.8,-211.06 439.39,-351.4 86.65,-78.67 31.8,-46.58 75.44,-113.48 32.16,-49.3 62.62,-98.12 83.59,-156.86 8.9,-24.93 17.44,-72.87 19.24,-102.54 1.2,-19.67 1.27,-40.14 -3.27,-59.16 -9.33,-39.02 -25.6,-15.67 -5.96,-40.85 -7.18,-8.23 -4.29,-6.24 -14.97,-14.15 -5.06,-3.76 -9.31,-7.04 -16.51,-10.45 -24.42,-11.56 -17.84,-8.32 -40.43,-9.26l-16.03 3.12c42.9,43.92 27.97,105.58 25.15,181.21l-10.13 -39.72c-10.84,114.4 -43.14,107.27 -68.84,173.33l-33.23 54.14c-31.35,46.96 -36.32,81.13 -111.23,146.48 -74.72,65.19 -125.81,127.85 -233.29,196.44 -36.62,23.37 -65.46,45.17 -105.64,66.16 -20.29,10.59 -42.37,23 -56.71,29.25 -24.13,10.52 -44.55,10.55 -66.74,20.67 -3.41,9.2 -0.59,2.17 -0.44,7.67 0.96,33.23 9.89,-22.42 0.44,5.96 -17.33,7.56 -14.73,4.22 -34.2,10.21 -92.99,28.65 -156.72,48.54 -232.41,-8.81 -18.71,-14.18 -5.28,-16.24 -22.14,-9.86z"/>
  <path class="fil9" d="M4487.31 691.6c0.11,17.25 -1.25,39.12 -0.13,55.62 0.38,5.68 1.99,19.24 3.26,24.62 3.58,15.24 3.91,14.47 8.16,21.84l5.46 -18.62c23.88,132.39 232.21,54.92 311.52,24.46 77.08,-29.6 232.11,-140.45 294.1,-195.9l147.74 -162.01c1.15,-1.44 2.59,-3.55 3.72,-5l54.84 -65.4c3.03,-4.81 6.39,-10.04 9.5,-16.89l45.28 -102.1c30.68,-84.37 30.9,-87.55 21.22,-203.76 -15.69,-10.91 -31.86,-15.17 -44.55,-33.73l-65.18 -3.52c-14.75,9.12 -15.45,0.65 9.71,13.79 15.13,7.89 27.06,12.5 36.47,18.26 5,42.07 11.47,106.08 -5.93,145.81l-191.21 290.07c-1.23,1.24 -2.94,3.12 -4.13,4.4l-75.99 78.83c-46.34,48.9 -252.79,176.78 -324.78,190.6 -40.66,7.8 -164.22,14.55 -195.11,-6.99 -11.61,-8.09 -14.87,-16.78 -23.01,-28.37l-20.96 -25.99z"/>
  <path class="fil10" d="M5474.6 1690.79c-108.95,2.78 -258.05,51.6 -320.61,95.69l-1.88 68.76c266.39,159.14 1064.96,157.02 1370.51,64.54 60.49,-18.3 70.98,-16.25 121.46,-49.25 13.9,-9.09 24.74,-13.82 37.03,-22.08 7.66,-75.02 -56.89,-98.1 -145.81,-123.22 -54.84,-15.48 -190.04,-44.96 -245.99,-43.24l3.66 34.57 143.55 15.03c3.91,39.24 -10.14,-0.51 28.77,36.62 29.57,28.22 -17.04,23.33 43.93,24.21l-0.97 71.41 -36.33 0 -0.02 31.3c-170.37,11.15 -59.25,33.76 -170.16,36.81l-136.68 11.87c-36.71,14.2 -2.47,14.01 -44.41,22.41 -38.83,7.79 -450.99,8.85 -493.11,-8.33 -32.04,-13.07 19.81,-12.47 -50.85,-22.77 -36.67,-5.35 -102.91,-5.97 -141.53,-6.31 -1.92,-40.9 -3.26,-19.71 -10.71,-28.34l-60.81 -4.15c-1.26,-54.29 3.74,-16.07 -11.5,-28.51 -14.05,-11.47 -18.49,-4.48 -31.52,-12.55l-0.8 -51.57c2.05,-1.48 5.74,-4.92 6.81,-2.98l40.45 -35.71c0.81,-1.54 2.23,-4.74 2.87,-6.03 0.66,-1.32 1.47,-4.41 2.92,-6.14l89.87 -6.54 11.83 -55.48z"/>
  <path class="fil11" d="M4967.25 40.33c1.99,1.3 4.9,2.25 6.58,2.76 51.34,15.59 64.04,-2.1 81.83,23.91 44.7,65.37 -38.07,168.88 -38.07,168.88 -4.1,8.2 -3.97,10.13 -8.05,18.02l-65.59 71.95c-12.83,14.39 -6.29,10.87 -24.89,27.16 -18.95,16.61 -34.94,28.68 -57.53,45.71 -23.12,17.44 -40.69,30.18 -68.01,44.36 -72.33,37.55 -47.1,32.48 -47.11,32.43 -0.16,-0.95 -0.29,2.6 -0.92,3.71 -27.47,1.96 -121.52,27.72 -147.35,2.72 -21.99,-21.29 -29.18,-50.25 -31.31,-80.1 -0.2,-2.92 -0.86,-3.99 -1.98,-5.64l-42.57 104.06c20.76,21.42 -2.68,-14.92 8.38,16.88 11.41,32.83 2.09,28.81 29.81,70.22 173.8,17.47 317.43,-99.28 406.28,-178.23 40.27,-35.78 37.33,-29.11 70.26,-76.14 48.43,-69.17 43.05,-43.03 106.66,-150.68 28.15,-47.64 20.02,-106.42 -11.43,-151.81 -23.25,-3.04 -50.34,-2.56 -68.37,-14.86l-96.63 24.7z"/>
  <path class="fil12" d="M5190.61 11.12c160.47,18.64 46.96,227.53 -14.15,313.9 -4.85,6.86 -6.41,9.03 -12.33,15.61 -50.38,55.89 -18.65,38.26 -53.27,75.21 -40.71,43.45 -168.81,160.36 -221.86,190.58 -24.56,13.99 -47.61,19.86 -70.65,33.28l-135.52 68.36c-169.54,58.78 -170.4,-75.09 -186.36,-96.21l-9.16 79.76 20.96 25.99c8.14,11.59 11.4,20.28 23.01,28.37 30.89,21.54 154.45,14.79 195.11,6.99 71.99,-13.82 278.44,-141.7 324.78,-190.6l75.99 -78.83c1.19,-1.28 2.9,-3.16 4.13,-4.4l191.21 -290.07c17.4,-39.73 10.93,-103.75 5.93,-145.81 -9.41,-5.77 -21.35,-10.37 -36.47,-18.26 -25.17,-13.14 -24.46,-4.67 -9.71,-13.79 -19.38,-15.29 -68.49,-11.05 -98.47,-9.23 -7.74,18.16 -12.78,10.45 6.83,9.16z"/>
  <path class="fil13" d="M5063.88 15.63c18.03,12.3 45.12,11.83 68.37,14.86 31.45,45.4 39.58,104.17 11.43,151.81 -63.61,107.64 -58.23,81.5 -106.66,150.68 -32.93,47.03 -29.99,40.36 -70.26,76.14 -88.85,78.95 -232.48,195.7 -406.28,178.23 -27.72,-41.41 -18.4,-37.39 -29.81,-70.22 -11.06,-31.8 12.37,4.54 -8.38,-16.88l-16.49 65.72c11.73,8.67 23.84,57.7 33.42,73.8 78.56,11.75 141.65,11.18 215.78,-13.86 8.69,-2.94 16,-6.99 17.51,-7.99l13.78 -11.5c28.02,-19.31 61.33,-33.4 92.03,-53.84 89.62,-59.66 210.52,-167.32 267.6,-256.62 66.47,-104 20.78,-33.48 50.88,-97.06 16.75,-35.4 20.97,-17.94 25.05,-19.64 2.18,-27.95 7.31,-75.45 2.55,-101.92 -7.24,-40.22 -20.34,-27.42 -33.77,-66.23 -19.61,1.29 -14.57,9 -6.83,-9.16l-119.9 13.67z"/>
  <path class="fil14" d="M4564.86 396.19c1.12,1.65 1.78,2.72 1.98,5.64 2.12,29.85 9.32,58.82 31.31,80.1 25.82,25 119.88,-0.76 147.35,-2.72 0.63,-1.11 0.76,-4.66 0.92,-3.71 0.01,0.05 -25.22,5.12 47.11,-32.43 27.33,-14.18 44.89,-26.92 68.01,-44.36 22.59,-17.03 38.57,-29.1 57.53,-45.71 18.6,-16.29 12.06,-12.77 24.89,-27.16l65.59 -71.95c4.08,-7.89 3.95,-9.82 8.05,-18.02 0,0 82.76,-103.5 38.07,-168.88 -17.79,-26.01 -30.49,-8.31 -81.83,-23.91 -1.67,-0.51 -4.59,-1.46 -6.58,-2.76 -27.64,5.95 -51.72,21.37 -76.67,34.54 -30.55,16.13 -49.47,24.37 -68.95,46.9 42.83,-9.7 85.64,-43.52 135.55,-16.7 9.05,9.07 21.56,102.27 -45.61,153.4 -101.02,76.88 -64.67,87.94 -219.37,142.39 -109.02,38.37 -46.37,-115.24 -45.47,-119.43l-47.04 53.05c-11.42,17.4 -27.73,38.6 -34.84,61.71z"/>
  <path class="fil15" d="M4505.8 565.97l-9.33 45.86c15.96,21.12 16.82,154.99 186.36,96.21l135.52 -68.36c23.04,-13.42 46.1,-19.29 70.65,-33.28 53.05,-30.22 181.15,-147.13 221.86,-190.58 34.63,-36.95 2.89,-19.32 53.27,-75.21 5.93,-6.58 7.48,-8.75 12.33,-15.61 61.11,-86.37 174.62,-295.26 14.15,-313.9 13.43,38.81 26.54,26.01 33.77,66.23 4.76,26.46 -0.37,73.97 -2.55,101.92 -4.08,1.71 -8.3,-15.75 -25.05,19.64 -30.1,63.58 15.59,-6.94 -50.88,97.06 -57.08,89.3 -177.98,196.97 -267.6,256.62 -30.7,20.44 -64.01,34.53 -92.03,53.84l-13.78 11.5c-1.51,0.99 -8.82,5.05 -17.51,7.99 -74.12,25.03 -137.21,25.6 -215.78,13.86 -9.58,-16.1 -21.68,-65.13 -33.42,-73.8z"/>
  <path class="fil4" d="M7185.28 1081.74l247.28 0 -123.66 -406.28c-26.74,43.94 -42.72,143.31 -61.47,201.07 -20.66,63.63 -47.36,140.48 -62.15,205.22z"/>
 </g>
</svg>
