<?xml version="1.0" encoding="UTF-8"?>
<!DOCTYPE svg PUBLIC "-//W3C//DTD SVG 1.1//EN" "http://www.w3.org/Graphics/SVG/1.1/DTD/svg11.dtd">
<!-- Creator: CorelDRAW 2017 -->
<svg xmlns="http://www.w3.org/2000/svg" xml:space="preserve" width="57.8554mm" height="42.857mm" version="1.1" style="shape-rendering:geometricPrecision; text-rendering:geometricPrecision; image-rendering:optimizeQuality; fill-rule:evenodd; clip-rule:evenodd"
viewBox="0 0 475.83 352.48"
 xmlns:xlink="http://www.w3.org/1999/xlink">
 <defs>
  <style type="text/css">
   <![CDATA[
    .fil0 {fill:black}
    .fil1 {fill:#E9E9E9}
   ]]>
  </style>
 </defs>
 <g id="Capa_x0020_1">
  <metadata id="CorelCorpID_0Corel-Layer"/>
  <path class="fil0" d="M-0 192.93l0 8.73c6.18,5.16 8.72,6.45 18.37,5.98 7.02,-12.16 24.08,-75.58 33.85,-81.03 7.16,11.61 1.46,165.36 2.7,202.85 0.49,14.88 1.77,16.67 9.74,23.01l10.36 0c11.98,-12.44 10.7,-10.31 10.79,-31.9 0.11,-24.17 -5.17,-101.14 4.12,-106.22 6.39,12.34 0.85,106.09 3.3,130.16 2.87,3.01 6.05,5.44 9.41,7.96l10.23 0c16.01,-15.94 10.03,-30.5 10.11,-75.44 0.05,-29.01 0.02,-58.03 0.02,-87.04 0,-20.28 -6.83,-65.71 6.36,-76.64 6.23,-5.16 22.38,-10.47 27.65,-15.92 7.33,-7.59 5.83,-20.23 10.59,-31.54 4.03,9.67 3.72,22.56 10.67,29.87 2.65,2.78 21.69,13.84 26.47,16.72 1.09,35.2 -4.95,215.25 3.8,231.28 9.29,7.36 15.47,8.5 22.8,-0.84 15.86,-16.96 -4.97,-105.84 6.56,-131.11 13.71,5.48 -2.45,118.07 6.69,131.18 8.53,5.88 13.35,10.44 25.34,0.76 7.82,-13.46 3.29,-136 3.29,-162.48 0,-21.07 -6.59,-61.17 7.85,-72.8 8.62,-6.95 17.52,-9.02 22.39,-18.39 4.8,-9.23 5.15,-24.41 9.88,-34.21 4.93,9.68 5.13,29.45 12.09,37.86 5.37,6.49 21.65,12.92 30.34,18.52 5.14,6.9 2.51,168.81 2.52,199.65 0.01,26.06 -3.56,40.86 25.36,35.2 8.88,-22.62 -2.71,-124.4 8.04,-135.37 11.91,21.28 -9.95,127.1 10.71,136.13 19.98,8.74 21.41,-11.75 21.33,-27.19 -0.14,-27.13 -4.11,-186.47 2.78,-196.72 20.23,18.16 16.88,102.21 49.32,75.06l0 -7.14c-4.77,-9.43 -12.32,-41.63 -16.91,-54.54 -24.97,-70.08 -24.39,-52.96 -87.56,-55.49 -27.35,-1.1 -32.4,-7.53 -36.78,-31.71 -2.69,-14.9 -2.06,-52.82 -23.93,-50 -26.31,3.39 -8.44,63.4 -32.23,76.64 -14.54,8.09 -66.13,8.82 -88.75,-4.7l-14.44 -71.25c-21.2,-0.68 -18.6,6.82 -22.22,25.93 -11.11,58.67 -6.24,57.94 -77.62,57.81 -43.25,-0.08 -45.07,17.86 -64.81,75.49 -3.14,9.17 -5.87,24.18 -10.59,32.86z"/>
  <path class="fil0" d="M78.78 26.71c-35.42,16.97 -8.01,63.21 23.32,47.93 26.26,-12.81 10.3,-64.03 -23.32,-47.93z"/>
  <path class="fil0" d="M226.88 24.05c-5.98,2.88 -2.95,0.63 -7.82,4.88 -21.32,18.6 -0.21,57.71 31.02,42.84 27.64,-13.16 8.8,-63.13 -23.2,-47.72z"/>
  <path class="fil0" d="M381.07 24.18c-32.23,14.93 -11.25,61.78 20.66,48.45 27.1,-11.33 11.63,-63.4 -20.66,-48.45z"/>
  <path class="fil1" d="M75.03 352.48l27.62 0c-3.36,-2.52 -6.54,-4.95 -9.41,-7.96 -2.45,-24.06 3.09,-117.82 -3.3,-130.16 -9.29,5.08 -4.01,82.04 -4.12,106.22 -0.1,21.59 1.19,19.46 -10.79,31.9z"/>
 </g>
</svg>
